<svg width="732" height="670" viewBox="0 0 732 670" fill="none" xmlns="http://www.w3.org/2000/svg">
<g clip-path="url(#clip0_1293_254)">
<path opacity="0.3" d="M551.035 72.06H552.995L556.649 82H554.661L553.737 79.522H550.265L549.355 82H547.367L551.035 72.06ZM553.387 78.164L552.015 74.062L550.587 78.164H553.387ZM555.615 93.06C555.615 93.676 555.447 94.2173 555.111 94.684C554.785 95.1413 554.346 95.496 553.795 95.748C553.245 96 552.643 96.126 551.989 96.126C551.327 96.126 550.72 95.9953 550.169 95.734C549.628 95.4633 549.194 95.0947 548.867 94.628C548.55 94.152 548.391 93.606 548.391 92.99C548.391 92.6167 548.471 92.2807 548.629 91.982C548.788 91.674 548.984 91.4127 549.217 91.198C549.46 90.9833 549.703 90.8107 549.945 90.68C549.6 90.512 549.306 90.26 549.063 89.924C548.821 89.588 548.699 89.2193 548.699 88.818C548.699 88.37 548.797 87.978 548.993 87.642C549.189 87.2967 549.451 87.0073 549.777 86.774C550.104 86.5407 550.459 86.3633 550.841 86.242C551.233 86.1207 551.621 86.06 552.003 86.06C552.377 86.06 552.759 86.1207 553.151 86.242C553.543 86.354 553.903 86.5267 554.229 86.76C554.556 86.9933 554.817 87.2827 555.013 87.628C555.219 87.964 555.321 88.356 555.321 88.804C555.321 89.2053 555.195 89.5787 554.943 89.924C554.691 90.2693 554.388 90.5213 554.033 90.68C554.444 90.8853 554.808 91.1933 555.125 91.604C555.452 92.0053 555.615 92.4907 555.615 93.06ZM550.603 88.874C550.603 89.126 550.673 89.3407 550.813 89.518C550.953 89.6953 551.131 89.8307 551.345 89.924C551.56 90.008 551.779 90.05 552.003 90.05C552.218 90.05 552.433 90.008 552.647 89.924C552.862 89.8307 553.039 89.6953 553.179 89.518C553.329 89.3407 553.403 89.1213 553.403 88.86C553.403 88.5147 553.263 88.2393 552.983 88.034C552.703 87.8287 552.372 87.726 551.989 87.726C551.616 87.726 551.289 87.8333 551.009 88.048C550.739 88.2533 550.603 88.5287 550.603 88.874ZM553.711 92.948C553.711 92.6307 553.627 92.3647 553.459 92.15C553.291 91.926 553.077 91.758 552.815 91.646C552.554 91.5247 552.279 91.464 551.989 91.464C551.691 91.464 551.411 91.5247 551.149 91.646C550.897 91.7673 550.692 91.94 550.533 92.164C550.375 92.388 550.295 92.6493 550.295 92.948C550.295 93.2467 550.379 93.508 550.547 93.732C550.715 93.9467 550.93 94.1193 551.191 94.25C551.453 94.3713 551.723 94.432 552.003 94.432C552.302 94.432 552.577 94.3667 552.829 94.236C553.091 94.1053 553.301 93.9327 553.459 93.718C553.627 93.494 553.711 93.2373 553.711 92.948ZM553.431 106.696C554.009 106.789 554.476 107.069 554.831 107.536C555.195 107.993 555.377 108.544 555.377 109.188C555.377 109.776 555.227 110.285 554.929 110.714C554.63 111.143 554.205 111.475 553.655 111.708C553.113 111.941 552.474 112.058 551.737 112.058C550.318 112.058 549.235 111.61 548.489 110.714L549.553 109.384C549.795 109.692 550.085 109.93 550.421 110.098C550.766 110.266 551.186 110.35 551.681 110.35C552.25 110.35 552.684 110.233 552.983 110C553.281 109.776 553.431 109.435 553.431 108.978C553.431 108.493 553.258 108.119 552.913 107.858C552.567 107.597 552.045 107.466 551.345 107.466H550.953V106.066H551.387C551.956 106.066 552.399 105.94 552.717 105.688C553.043 105.427 553.207 105.095 553.207 104.694C553.207 104.321 553.076 104.041 552.815 103.854C552.553 103.658 552.213 103.56 551.793 103.56C550.925 103.56 550.262 103.933 549.805 104.68L548.629 103.364C548.825 103.084 549.091 102.837 549.427 102.622C549.772 102.407 550.164 102.239 550.603 102.118C551.051 101.997 551.517 101.936 552.003 101.936C552.637 101.936 553.193 102.039 553.669 102.244C554.154 102.449 554.532 102.739 554.803 103.112C555.073 103.485 555.209 103.919 555.209 104.414C555.209 104.787 555.134 105.137 554.985 105.464C554.835 105.781 554.625 106.052 554.355 106.276C554.093 106.491 553.785 106.631 553.431 106.696ZM551.792 126.086C551.073 126.086 550.425 125.932 549.846 125.624C549.267 125.316 548.829 124.896 548.53 124.364L549.608 123.244C549.869 123.608 550.196 123.897 550.588 124.112C550.98 124.327 551.386 124.434 551.806 124.434C552.31 124.434 552.721 124.28 553.038 123.972C553.365 123.664 553.528 123.263 553.528 122.768C553.528 122.283 553.374 121.891 553.066 121.592C552.758 121.293 552.375 121.144 551.918 121.144C551.61 121.144 551.321 121.214 551.05 121.354C550.789 121.485 550.579 121.676 550.42 121.928H548.782L549.93 116.006H554.83V117.714H551.288L550.882 119.94C550.994 119.828 551.157 119.735 551.372 119.66C551.596 119.576 551.867 119.534 552.184 119.534C552.809 119.534 553.365 119.669 553.85 119.94C554.345 120.211 554.732 120.589 555.012 121.074C555.301 121.55 555.446 122.101 555.446 122.726C555.446 123.398 555.287 123.986 554.97 124.49C554.653 124.994 554.219 125.386 553.668 125.666C553.117 125.946 552.492 126.086 551.792 126.086ZM547.635 132.96C547.635 132.353 547.743 131.756 547.957 131.168C548.181 130.58 548.503 130.048 548.923 129.572C549.343 129.096 549.857 128.718 550.463 128.438C551.07 128.149 551.761 128.004 552.535 128.004C553.441 128.004 554.229 128.205 554.901 128.606C555.573 129.007 556.073 129.53 556.399 130.174L554.915 131.196C554.747 130.823 554.528 130.529 554.257 130.314C553.987 130.099 553.693 129.945 553.375 129.852C553.067 129.759 552.769 129.712 552.479 129.712C551.994 129.712 551.569 129.81 551.205 130.006C550.851 130.202 550.552 130.459 550.309 130.776C550.067 131.093 549.885 131.448 549.763 131.84C549.651 132.232 549.595 132.624 549.595 133.016C549.595 133.604 549.717 134.155 549.959 134.668C550.202 135.172 550.543 135.583 550.981 135.9C551.42 136.217 551.929 136.376 552.507 136.376C552.806 136.376 553.114 136.325 553.431 136.222C553.758 136.119 554.057 135.956 554.327 135.732C554.598 135.508 554.808 135.219 554.957 134.864L556.539 135.774C556.334 136.269 556.012 136.689 555.573 137.034C555.135 137.37 554.64 137.631 554.089 137.818C553.539 137.995 552.993 138.084 552.451 138.084C551.742 138.084 551.093 137.939 550.505 137.65C549.927 137.351 549.423 136.959 548.993 136.474C548.564 135.979 548.228 135.429 547.985 134.822C547.752 134.206 547.635 133.585 547.635 132.96ZM555.734 150.306V152H548.832V142.06H555.608V143.754H550.764V146.148H554.95V147.716H550.764V150.306H555.734ZM552.369 167.778V165.692H548.281V164.026L552.971 158.006H554.245V164.012H555.477V165.692H554.245V167.778H552.369ZM550.157 164.012H552.579V160.848L550.157 164.012ZM551.035 170.06H552.995L556.649 180H554.661L553.737 177.522H550.265L549.355 180H547.367L551.035 170.06ZM553.387 176.164L552.015 172.062L550.587 176.164H553.387ZM555.686 190.682C555.686 191.326 555.523 191.909 555.196 192.432C554.879 192.955 554.445 193.37 553.894 193.678C553.353 193.986 552.737 194.14 552.046 194.14C551.299 194.14 550.651 193.958 550.1 193.594C549.549 193.23 549.125 192.707 548.826 192.026C548.537 191.345 548.392 190.528 548.392 189.576C548.392 187.765 548.737 186.384 549.428 185.432C550.128 184.471 551.066 183.99 552.242 183.99C552.867 183.99 553.441 184.125 553.964 184.396C554.496 184.667 554.944 185.054 555.308 185.558L554.23 186.734C554.006 186.389 553.717 186.118 553.362 185.922C553.007 185.717 552.625 185.614 552.214 185.614C551.589 185.614 551.089 185.866 550.716 186.37C550.343 186.865 550.147 187.56 550.128 188.456C550.324 188.12 550.604 187.854 550.968 187.658C551.332 187.462 551.747 187.364 552.214 187.364C552.867 187.364 553.455 187.513 553.978 187.812C554.501 188.101 554.916 188.498 555.224 189.002C555.532 189.497 555.686 190.057 555.686 190.682ZM552.06 192.558C552.387 192.558 552.69 192.474 552.97 192.306C553.25 192.129 553.474 191.9 553.642 191.62C553.81 191.331 553.894 191.018 553.894 190.682C553.894 190.346 553.81 190.043 553.642 189.772C553.474 189.492 553.25 189.273 552.97 189.114C552.69 188.946 552.387 188.862 552.06 188.862C551.724 188.862 551.416 188.946 551.136 189.114C550.856 189.273 550.632 189.492 550.464 189.772C550.305 190.043 550.226 190.346 550.226 190.682C550.226 191.018 550.31 191.331 550.478 191.62C550.646 191.9 550.865 192.129 551.136 192.306C551.416 192.474 551.724 192.558 552.06 192.558ZM556.286 205.438C556.286 205.998 556.142 206.469 555.852 206.852C555.563 207.225 555.171 207.51 554.676 207.706C554.191 207.902 553.659 208 553.08 208H548.278V198.06H553.598C554.065 198.06 554.466 198.186 554.802 198.438C555.138 198.681 555.4 198.998 555.586 199.39C555.773 199.782 555.866 200.183 555.866 200.594C555.866 201.079 555.745 201.537 555.502 201.966C555.26 202.386 554.905 202.699 554.438 202.904C555.008 203.072 555.456 203.375 555.782 203.814C556.118 204.253 556.286 204.794 556.286 205.438ZM550.21 199.712V202.218H552.786C553.104 202.218 553.379 202.106 553.612 201.882C553.846 201.658 553.962 201.35 553.962 200.958C553.962 200.585 553.855 200.286 553.64 200.062C553.435 199.829 553.178 199.712 552.87 199.712H550.21ZM554.34 205.074C554.34 204.71 554.228 204.397 554.004 204.136C553.78 203.875 553.505 203.744 553.178 203.744H550.21V206.362H553.08C553.435 206.362 553.734 206.236 553.976 205.984C554.219 205.732 554.34 205.429 554.34 205.074ZM547.635 216.96C547.635 216.353 547.743 215.756 547.957 215.168C548.181 214.58 548.503 214.048 548.923 213.572C549.343 213.096 549.857 212.718 550.463 212.438C551.07 212.149 551.761 212.004 552.535 212.004C553.441 212.004 554.229 212.205 554.901 212.606C555.573 213.007 556.073 213.53 556.399 214.174L554.915 215.196C554.747 214.823 554.528 214.529 554.257 214.314C553.987 214.099 553.693 213.945 553.375 213.852C553.067 213.759 552.769 213.712 552.479 213.712C551.994 213.712 551.569 213.81 551.205 214.006C550.851 214.202 550.552 214.459 550.309 214.776C550.067 215.093 549.885 215.448 549.763 215.84C549.651 216.232 549.595 216.624 549.595 217.016C549.595 217.604 549.717 218.155 549.959 218.668C550.202 219.172 550.543 219.583 550.981 219.9C551.42 220.217 551.929 220.376 552.507 220.376C552.806 220.376 553.114 220.325 553.431 220.222C553.758 220.119 554.057 219.956 554.327 219.732C554.598 219.508 554.808 219.219 554.957 218.864L556.539 219.774C556.334 220.269 556.012 220.689 555.573 221.034C555.135 221.37 554.64 221.631 554.089 221.818C553.539 221.995 552.993 222.084 552.451 222.084C551.742 222.084 551.093 221.939 550.505 221.65C549.927 221.351 549.423 220.959 548.993 220.474C548.564 219.979 548.228 219.429 547.985 218.822C547.752 218.206 547.635 217.585 547.635 216.96ZM555.615 233.06C555.615 233.676 555.447 234.217 555.111 234.684C554.785 235.141 554.346 235.496 553.795 235.748C553.245 236 552.643 236.126 551.989 236.126C551.327 236.126 550.72 235.995 550.169 235.734C549.628 235.463 549.194 235.095 548.867 234.628C548.55 234.152 548.391 233.606 548.391 232.99C548.391 232.617 548.471 232.281 548.629 231.982C548.788 231.674 548.984 231.413 549.217 231.198C549.46 230.983 549.703 230.811 549.945 230.68C549.6 230.512 549.306 230.26 549.063 229.924C548.821 229.588 548.699 229.219 548.699 228.818C548.699 228.37 548.797 227.978 548.993 227.642C549.189 227.297 549.451 227.007 549.777 226.774C550.104 226.541 550.459 226.363 550.841 226.242C551.233 226.121 551.621 226.06 552.003 226.06C552.377 226.06 552.759 226.121 553.151 226.242C553.543 226.354 553.903 226.527 554.229 226.76C554.556 226.993 554.817 227.283 555.013 227.628C555.219 227.964 555.321 228.356 555.321 228.804C555.321 229.205 555.195 229.579 554.943 229.924C554.691 230.269 554.388 230.521 554.033 230.68C554.444 230.885 554.808 231.193 555.125 231.604C555.452 232.005 555.615 232.491 555.615 233.06ZM550.603 228.874C550.603 229.126 550.673 229.341 550.813 229.518C550.953 229.695 551.131 229.831 551.345 229.924C551.56 230.008 551.779 230.05 552.003 230.05C552.218 230.05 552.433 230.008 552.647 229.924C552.862 229.831 553.039 229.695 553.179 229.518C553.329 229.341 553.403 229.121 553.403 228.86C553.403 228.515 553.263 228.239 552.983 228.034C552.703 227.829 552.372 227.726 551.989 227.726C551.616 227.726 551.289 227.833 551.009 228.048C550.739 228.253 550.603 228.529 550.603 228.874ZM553.711 232.948C553.711 232.631 553.627 232.365 553.459 232.15C553.291 231.926 553.077 231.758 552.815 231.646C552.554 231.525 552.279 231.464 551.989 231.464C551.691 231.464 551.411 231.525 551.149 231.646C550.897 231.767 550.692 231.94 550.533 232.164C550.375 232.388 550.295 232.649 550.295 232.948C550.295 233.247 550.379 233.508 550.547 233.732C550.715 233.947 550.93 234.119 551.191 234.25C551.453 234.371 551.723 234.432 552.003 234.432C552.302 234.432 552.577 234.367 552.829 234.236C553.091 234.105 553.301 233.933 553.459 233.718C553.627 233.494 553.711 233.237 553.711 232.948ZM555.121 248.306V250H549.437V248.306H551.425V244.064C551.313 244.204 551.122 244.353 550.851 244.512C550.59 244.671 550.3 244.806 549.983 244.918C549.675 245.03 549.4 245.086 549.157 245.086V243.336C549.325 243.336 549.526 243.285 549.759 243.182C550.002 243.07 550.24 242.939 550.473 242.79C550.716 242.641 550.921 242.496 551.089 242.356C551.266 242.207 551.378 242.09 551.425 242.006H553.343V248.306H555.121ZM555.61 259.898C555.61 260.719 555.452 261.452 555.134 262.096C554.826 262.731 554.397 263.23 553.846 263.594C553.305 263.958 552.689 264.14 551.998 264.14C551.308 264.14 550.687 263.958 550.136 263.594C549.595 263.23 549.166 262.731 548.848 262.096C548.54 261.452 548.386 260.719 548.386 259.898C548.386 259.077 548.54 258.349 548.848 257.714C549.166 257.07 549.595 256.566 550.136 256.202C550.687 255.829 551.308 255.642 551.998 255.642C552.689 255.642 553.305 255.829 553.846 256.202C554.397 256.566 554.826 257.07 555.134 257.714C555.452 258.349 555.61 259.077 555.61 259.898ZM553.72 259.898C553.72 259.151 553.557 258.545 553.23 258.078C552.913 257.602 552.502 257.364 551.998 257.364C551.476 257.364 551.056 257.602 550.738 258.078C550.421 258.545 550.262 259.151 550.262 259.898C550.262 260.645 550.421 261.251 550.738 261.718C551.056 262.185 551.476 262.418 551.998 262.418C552.502 262.418 552.913 262.185 553.23 261.718C553.557 261.251 553.72 260.645 553.72 259.898ZM547.635 272.96C547.635 272.353 547.743 271.756 547.957 271.168C548.181 270.58 548.503 270.048 548.923 269.572C549.343 269.096 549.857 268.718 550.463 268.438C551.07 268.149 551.761 268.004 552.535 268.004C553.441 268.004 554.229 268.205 554.901 268.606C555.573 269.007 556.073 269.53 556.399 270.174L554.915 271.196C554.747 270.823 554.528 270.529 554.257 270.314C553.987 270.099 553.693 269.945 553.375 269.852C553.067 269.759 552.769 269.712 552.479 269.712C551.994 269.712 551.569 269.81 551.205 270.006C550.851 270.202 550.552 270.459 550.309 270.776C550.067 271.093 549.885 271.448 549.763 271.84C549.651 272.232 549.595 272.624 549.595 273.016C549.595 273.604 549.717 274.155 549.959 274.668C550.202 275.172 550.543 275.583 550.981 275.9C551.42 276.217 551.929 276.376 552.507 276.376C552.806 276.376 553.114 276.325 553.431 276.222C553.758 276.119 554.057 275.956 554.327 275.732C554.598 275.508 554.808 275.219 554.957 274.864L556.539 275.774C556.334 276.269 556.012 276.689 555.573 277.034C555.135 277.37 554.64 277.631 554.089 277.818C553.539 277.995 552.993 278.084 552.451 278.084C551.742 278.084 551.093 277.939 550.505 277.65C549.927 277.351 549.423 276.959 548.993 276.474C548.564 275.979 548.228 275.429 547.985 274.822C547.752 274.206 547.635 273.585 547.635 272.96ZM551.035 282.06H552.995L556.649 292H554.661L553.737 289.522H550.265L549.355 292H547.367L551.035 282.06ZM553.387 288.164L552.015 284.062L550.587 288.164H553.387ZM552.369 307.778V305.692H548.281V304.026L552.971 298.006H554.245V304.012H555.477V305.692H554.245V307.778H552.369ZM550.157 304.012H552.579V300.848L550.157 304.012ZM555.686 316.682C555.686 317.326 555.523 317.909 555.196 318.432C554.879 318.955 554.445 319.37 553.894 319.678C553.353 319.986 552.737 320.14 552.046 320.14C551.299 320.14 550.651 319.958 550.1 319.594C549.549 319.23 549.125 318.707 548.826 318.026C548.537 317.345 548.392 316.528 548.392 315.576C548.392 313.765 548.737 312.384 549.428 311.432C550.128 310.471 551.066 309.99 552.242 309.99C552.867 309.99 553.441 310.125 553.964 310.396C554.496 310.667 554.944 311.054 555.308 311.558L554.23 312.734C554.006 312.389 553.717 312.118 553.362 311.922C553.007 311.717 552.625 311.614 552.214 311.614C551.589 311.614 551.089 311.866 550.716 312.37C550.343 312.865 550.147 313.56 550.128 314.456C550.324 314.12 550.604 313.854 550.968 313.658C551.332 313.462 551.747 313.364 552.214 313.364C552.867 313.364 553.455 313.513 553.978 313.812C554.501 314.101 554.916 314.498 555.224 315.002C555.532 315.497 555.686 316.057 555.686 316.682ZM552.06 318.558C552.387 318.558 552.69 318.474 552.97 318.306C553.25 318.129 553.474 317.9 553.642 317.62C553.81 317.331 553.894 317.018 553.894 316.682C553.894 316.346 553.81 316.043 553.642 315.772C553.474 315.492 553.25 315.273 552.97 315.114C552.69 314.946 552.387 314.862 552.06 314.862C551.724 314.862 551.416 314.946 551.136 315.114C550.856 315.273 550.632 315.492 550.464 315.772C550.305 316.043 550.226 316.346 550.226 316.682C550.226 317.018 550.31 317.331 550.478 317.62C550.646 317.9 550.865 318.129 551.136 318.306C551.416 318.474 551.724 318.558 552.06 318.558ZM549.016 334V324.06H555.694V325.754H550.948V328.316H554.896V329.884H550.948V334H549.016ZM551.035 338.06H552.995L556.649 348H554.661L553.737 345.522H550.265L549.355 348H547.367L551.035 338.06ZM553.387 344.164L552.015 340.062L550.587 344.164H553.387ZM555.615 359.06C555.615 359.676 555.447 360.217 555.111 360.684C554.785 361.141 554.346 361.496 553.795 361.748C553.245 362 552.643 362.126 551.989 362.126C551.327 362.126 550.72 361.995 550.169 361.734C549.628 361.463 549.194 361.095 548.867 360.628C548.55 360.152 548.391 359.606 548.391 358.99C548.391 358.617 548.471 358.281 548.629 357.982C548.788 357.674 548.984 357.413 549.217 357.198C549.46 356.983 549.703 356.811 549.945 356.68C549.6 356.512 549.306 356.26 549.063 355.924C548.821 355.588 548.699 355.219 548.699 354.818C548.699 354.37 548.797 353.978 548.993 353.642C549.189 353.297 549.451 353.007 549.777 352.774C550.104 352.541 550.459 352.363 550.841 352.242C551.233 352.121 551.621 352.06 552.003 352.06C552.377 352.06 552.759 352.121 553.151 352.242C553.543 352.354 553.903 352.527 554.229 352.76C554.556 352.993 554.817 353.283 555.013 353.628C555.219 353.964 555.321 354.356 555.321 354.804C555.321 355.205 555.195 355.579 554.943 355.924C554.691 356.269 554.388 356.521 554.033 356.68C554.444 356.885 554.808 357.193 555.125 357.604C555.452 358.005 555.615 358.491 555.615 359.06ZM550.603 354.874C550.603 355.126 550.673 355.341 550.813 355.518C550.953 355.695 551.131 355.831 551.345 355.924C551.56 356.008 551.779 356.05 552.003 356.05C552.218 356.05 552.433 356.008 552.647 355.924C552.862 355.831 553.039 355.695 553.179 355.518C553.329 355.341 553.403 355.121 553.403 354.86C553.403 354.515 553.263 354.239 552.983 354.034C552.703 353.829 552.372 353.726 551.989 353.726C551.616 353.726 551.289 353.833 551.009 354.048C550.739 354.253 550.603 354.529 550.603 354.874ZM553.711 358.948C553.711 358.631 553.627 358.365 553.459 358.15C553.291 357.926 553.077 357.758 552.815 357.646C552.554 357.525 552.279 357.464 551.989 357.464C551.691 357.464 551.411 357.525 551.149 357.646C550.897 357.767 550.692 357.94 550.533 358.164C550.375 358.388 550.295 358.649 550.295 358.948C550.295 359.247 550.379 359.508 550.547 359.732C550.715 359.947 550.93 360.119 551.191 360.25C551.453 360.371 551.723 360.432 552.003 360.432C552.302 360.432 552.577 360.367 552.829 360.236C553.091 360.105 553.301 359.933 553.459 359.718C553.627 359.494 553.711 359.237 553.711 358.948ZM553.431 372.696C554.009 372.789 554.476 373.069 554.831 373.536C555.195 373.993 555.377 374.544 555.377 375.188C555.377 375.776 555.227 376.285 554.929 376.714C554.63 377.143 554.205 377.475 553.655 377.708C553.113 377.941 552.474 378.058 551.737 378.058C550.318 378.058 549.235 377.61 548.489 376.714L549.553 375.384C549.795 375.692 550.085 375.93 550.421 376.098C550.766 376.266 551.186 376.35 551.681 376.35C552.25 376.35 552.684 376.233 552.983 376C553.281 375.776 553.431 375.435 553.431 374.978C553.431 374.493 553.258 374.119 552.913 373.858C552.567 373.597 552.045 373.466 551.345 373.466H550.953V372.066H551.387C551.956 372.066 552.399 371.94 552.717 371.688C553.043 371.427 553.207 371.095 553.207 370.694C553.207 370.321 553.076 370.041 552.815 369.854C552.553 369.658 552.213 369.56 551.793 369.56C550.925 369.56 550.262 369.933 549.805 370.68L548.629 369.364C548.825 369.084 549.091 368.837 549.427 368.622C549.772 368.407 550.164 368.239 550.603 368.118C551.051 367.997 551.517 367.936 552.003 367.936C552.637 367.936 553.193 368.039 553.669 368.244C554.154 368.449 554.532 368.739 554.803 369.112C555.073 369.485 555.209 369.919 555.209 370.414C555.209 370.787 555.134 371.137 554.985 371.464C554.835 371.781 554.625 372.052 554.355 372.276C554.093 372.491 553.785 372.631 553.431 372.696ZM551.792 392.086C551.073 392.086 550.425 391.932 549.846 391.624C549.267 391.316 548.829 390.896 548.53 390.364L549.608 389.244C549.869 389.608 550.196 389.897 550.588 390.112C550.98 390.327 551.386 390.434 551.806 390.434C552.31 390.434 552.721 390.28 553.038 389.972C553.365 389.664 553.528 389.263 553.528 388.768C553.528 388.283 553.374 387.891 553.066 387.592C552.758 387.293 552.375 387.144 551.918 387.144C551.61 387.144 551.321 387.214 551.05 387.354C550.789 387.485 550.579 387.676 550.42 387.928H548.782L549.93 382.006H554.83V383.714H551.288L550.882 385.94C550.994 385.828 551.157 385.735 551.372 385.66C551.596 385.576 551.867 385.534 552.184 385.534C552.809 385.534 553.365 385.669 553.85 385.94C554.345 386.211 554.732 386.589 555.012 387.074C555.301 387.55 555.446 388.101 555.446 388.726C555.446 389.398 555.287 389.986 554.97 390.49C554.653 390.994 554.219 391.386 553.668 391.666C553.117 391.946 552.492 392.086 551.792 392.086ZM547.635 398.96C547.635 398.353 547.743 397.756 547.957 397.168C548.181 396.58 548.503 396.048 548.923 395.572C549.343 395.096 549.857 394.718 550.463 394.438C551.07 394.149 551.761 394.004 552.535 394.004C553.441 394.004 554.229 394.205 554.901 394.606C555.573 395.007 556.073 395.53 556.399 396.174L554.915 397.196C554.747 396.823 554.528 396.529 554.257 396.314C553.987 396.099 553.693 395.945 553.375 395.852C553.067 395.759 552.769 395.712 552.479 395.712C551.994 395.712 551.569 395.81 551.205 396.006C550.851 396.202 550.552 396.459 550.309 396.776C550.067 397.093 549.885 397.448 549.763 397.84C549.651 398.232 549.595 398.624 549.595 399.016C549.595 399.604 549.717 400.155 549.959 400.668C550.202 401.172 550.543 401.583 550.981 401.9C551.42 402.217 551.929 402.376 552.507 402.376C552.806 402.376 553.114 402.325 553.431 402.222C553.758 402.119 554.057 401.956 554.327 401.732C554.598 401.508 554.808 401.219 554.957 400.864L556.539 401.774C556.334 402.269 556.012 402.689 555.573 403.034C555.135 403.37 554.64 403.631 554.089 403.818C553.539 403.995 552.993 404.084 552.451 404.084C551.742 404.084 551.093 403.939 550.505 403.65C549.927 403.351 549.423 402.959 548.993 402.474C548.564 401.979 548.228 401.429 547.985 400.822C547.752 400.206 547.635 399.585 547.635 398.96ZM555.734 416.306V418H548.832V408.06H555.608V409.754H550.764V412.148H554.95V413.716H550.764V416.306H555.734ZM552.369 433.778V431.692H548.281V430.026L552.971 424.006H554.245V430.012H555.477V431.692H554.245V433.778H552.369ZM550.157 430.012H552.579V426.848L550.157 430.012ZM551.035 436.06H552.995L556.649 446H554.661L553.737 443.522H550.265L549.355 446H547.367L551.035 436.06ZM553.387 442.164L552.015 438.062L550.587 442.164H553.387ZM555.686 456.682C555.686 457.326 555.523 457.909 555.196 458.432C554.879 458.955 554.445 459.37 553.894 459.678C553.353 459.986 552.737 460.14 552.046 460.14C551.299 460.14 550.651 459.958 550.1 459.594C549.549 459.23 549.125 458.707 548.826 458.026C548.537 457.345 548.392 456.528 548.392 455.576C548.392 453.765 548.737 452.384 549.428 451.432C550.128 450.471 551.066 449.99 552.242 449.99C552.867 449.99 553.441 450.125 553.964 450.396C554.496 450.667 554.944 451.054 555.308 451.558L554.23 452.734C554.006 452.389 553.717 452.118 553.362 451.922C553.007 451.717 552.625 451.614 552.214 451.614C551.589 451.614 551.089 451.866 550.716 452.37C550.343 452.865 550.147 453.56 550.128 454.456C550.324 454.12 550.604 453.854 550.968 453.658C551.332 453.462 551.747 453.364 552.214 453.364C552.867 453.364 553.455 453.513 553.978 453.812C554.501 454.101 554.916 454.498 555.224 455.002C555.532 455.497 555.686 456.057 555.686 456.682ZM552.06 458.558C552.387 458.558 552.69 458.474 552.97 458.306C553.25 458.129 553.474 457.9 553.642 457.62C553.81 457.331 553.894 457.018 553.894 456.682C553.894 456.346 553.81 456.043 553.642 455.772C553.474 455.492 553.25 455.273 552.97 455.114C552.69 454.946 552.387 454.862 552.06 454.862C551.724 454.862 551.416 454.946 551.136 455.114C550.856 455.273 550.632 455.492 550.464 455.772C550.305 456.043 550.226 456.346 550.226 456.682C550.226 457.018 550.31 457.331 550.478 457.62C550.646 457.9 550.865 458.129 551.136 458.306C551.416 458.474 551.724 458.558 552.06 458.558ZM556.286 471.438C556.286 471.998 556.142 472.469 555.852 472.852C555.563 473.225 555.171 473.51 554.676 473.706C554.191 473.902 553.659 474 553.08 474H548.278V464.06H553.598C554.065 464.06 554.466 464.186 554.802 464.438C555.138 464.681 555.4 464.998 555.586 465.39C555.773 465.782 555.866 466.183 555.866 466.594C555.866 467.079 555.745 467.537 555.502 467.966C555.26 468.386 554.905 468.699 554.438 468.904C555.008 469.072 555.456 469.375 555.782 469.814C556.118 470.253 556.286 470.794 556.286 471.438ZM550.21 465.712V468.218H552.786C553.104 468.218 553.379 468.106 553.612 467.882C553.846 467.658 553.962 467.35 553.962 466.958C553.962 466.585 553.855 466.286 553.64 466.062C553.435 465.829 553.178 465.712 552.87 465.712H550.21ZM554.34 471.074C554.34 470.71 554.228 470.397 554.004 470.136C553.78 469.875 553.505 469.744 553.178 469.744H550.21V472.362H553.08C553.435 472.362 553.734 472.236 553.976 471.984C554.219 471.732 554.34 471.429 554.34 471.074ZM547.635 482.96C547.635 482.353 547.743 481.756 547.957 481.168C548.181 480.58 548.503 480.048 548.923 479.572C549.343 479.096 549.857 478.718 550.463 478.438C551.07 478.149 551.761 478.004 552.535 478.004C553.441 478.004 554.229 478.205 554.901 478.606C555.573 479.007 556.073 479.53 556.399 480.174L554.915 481.196C554.747 480.823 554.528 480.529 554.257 480.314C553.987 480.099 553.693 479.945 553.375 479.852C553.067 479.759 552.769 479.712 552.479 479.712C551.994 479.712 551.569 479.81 551.205 480.006C550.851 480.202 550.552 480.459 550.309 480.776C550.067 481.093 549.885 481.448 549.763 481.84C549.651 482.232 549.595 482.624 549.595 483.016C549.595 483.604 549.717 484.155 549.959 484.668C550.202 485.172 550.543 485.583 550.981 485.9C551.42 486.217 551.929 486.376 552.507 486.376C552.806 486.376 553.114 486.325 553.431 486.222C553.758 486.119 554.057 485.956 554.327 485.732C554.598 485.508 554.808 485.219 554.957 484.864L556.539 485.774C556.334 486.269 556.012 486.689 555.573 487.034C555.135 487.37 554.64 487.631 554.089 487.818C553.539 487.995 552.993 488.084 552.451 488.084C551.742 488.084 551.093 487.939 550.505 487.65C549.927 487.351 549.423 486.959 548.993 486.474C548.564 485.979 548.228 485.429 547.985 484.822C547.752 484.206 547.635 483.585 547.635 482.96ZM555.615 499.06C555.615 499.676 555.447 500.217 555.111 500.684C554.785 501.141 554.346 501.496 553.795 501.748C553.245 502 552.643 502.126 551.989 502.126C551.327 502.126 550.72 501.995 550.169 501.734C549.628 501.463 549.194 501.095 548.867 500.628C548.55 500.152 548.391 499.606 548.391 498.99C548.391 498.617 548.471 498.281 548.629 497.982C548.788 497.674 548.984 497.413 549.217 497.198C549.46 496.983 549.703 496.811 549.945 496.68C549.6 496.512 549.306 496.26 549.063 495.924C548.821 495.588 548.699 495.219 548.699 494.818C548.699 494.37 548.797 493.978 548.993 493.642C549.189 493.297 549.451 493.007 549.777 492.774C550.104 492.541 550.459 492.363 550.841 492.242C551.233 492.121 551.621 492.06 552.003 492.06C552.377 492.06 552.759 492.121 553.151 492.242C553.543 492.354 553.903 492.527 554.229 492.76C554.556 492.993 554.817 493.283 555.013 493.628C555.219 493.964 555.321 494.356 555.321 494.804C555.321 495.205 555.195 495.579 554.943 495.924C554.691 496.269 554.388 496.521 554.033 496.68C554.444 496.885 554.808 497.193 555.125 497.604C555.452 498.005 555.615 498.491 555.615 499.06ZM550.603 494.874C550.603 495.126 550.673 495.341 550.813 495.518C550.953 495.695 551.131 495.831 551.345 495.924C551.56 496.008 551.779 496.05 552.003 496.05C552.218 496.05 552.433 496.008 552.647 495.924C552.862 495.831 553.039 495.695 553.179 495.518C553.329 495.341 553.403 495.121 553.403 494.86C553.403 494.515 553.263 494.239 552.983 494.034C552.703 493.829 552.372 493.726 551.989 493.726C551.616 493.726 551.289 493.833 551.009 494.048C550.739 494.253 550.603 494.529 550.603 494.874ZM553.711 498.948C553.711 498.631 553.627 498.365 553.459 498.15C553.291 497.926 553.077 497.758 552.815 497.646C552.554 497.525 552.279 497.464 551.989 497.464C551.691 497.464 551.411 497.525 551.149 497.646C550.897 497.767 550.692 497.94 550.533 498.164C550.375 498.388 550.295 498.649 550.295 498.948C550.295 499.247 550.379 499.508 550.547 499.732C550.715 499.947 550.93 500.119 551.191 500.25C551.453 500.371 551.723 500.432 552.003 500.432C552.302 500.432 552.577 500.367 552.829 500.236C553.091 500.105 553.301 499.933 553.459 499.718C553.627 499.494 553.711 499.237 553.711 498.948ZM555.121 514.306V516H549.437V514.306H551.425V510.064C551.313 510.204 551.122 510.353 550.851 510.512C550.59 510.671 550.3 510.806 549.983 510.918C549.675 511.03 549.4 511.086 549.157 511.086V509.336C549.325 509.336 549.526 509.285 549.759 509.182C550.002 509.07 550.24 508.939 550.473 508.79C550.716 508.641 550.921 508.496 551.089 508.356C551.266 508.207 551.378 508.09 551.425 508.006H553.343V514.306H555.121ZM555.61 525.898C555.61 526.719 555.452 527.452 555.134 528.096C554.826 528.731 554.397 529.23 553.846 529.594C553.305 529.958 552.689 530.14 551.998 530.14C551.308 530.14 550.687 529.958 550.136 529.594C549.595 529.23 549.166 528.731 548.848 528.096C548.54 527.452 548.386 526.719 548.386 525.898C548.386 525.077 548.54 524.349 548.848 523.714C549.166 523.07 549.595 522.566 550.136 522.202C550.687 521.829 551.308 521.642 551.998 521.642C552.689 521.642 553.305 521.829 553.846 522.202C554.397 522.566 554.826 523.07 555.134 523.714C555.452 524.349 555.61 525.077 555.61 525.898ZM553.72 525.898C553.72 525.151 553.557 524.545 553.23 524.078C552.913 523.602 552.502 523.364 551.998 523.364C551.476 523.364 551.056 523.602 550.738 524.078C550.421 524.545 550.262 525.151 550.262 525.898C550.262 526.645 550.421 527.251 550.738 527.718C551.056 528.185 551.476 528.418 551.998 528.418C552.502 528.418 552.913 528.185 553.23 527.718C553.557 527.251 553.72 526.645 553.72 525.898ZM547.635 538.96C547.635 538.353 547.743 537.756 547.957 537.168C548.181 536.58 548.503 536.048 548.923 535.572C549.343 535.096 549.857 534.718 550.463 534.438C551.07 534.149 551.761 534.004 552.535 534.004C553.441 534.004 554.229 534.205 554.901 534.606C555.573 535.007 556.073 535.53 556.399 536.174L554.915 537.196C554.747 536.823 554.528 536.529 554.257 536.314C553.987 536.099 553.693 535.945 553.375 535.852C553.067 535.759 552.769 535.712 552.479 535.712C551.994 535.712 551.569 535.81 551.205 536.006C550.851 536.202 550.552 536.459 550.309 536.776C550.067 537.093 549.885 537.448 549.763 537.84C549.651 538.232 549.595 538.624 549.595 539.016C549.595 539.604 549.717 540.155 549.959 540.668C550.202 541.172 550.543 541.583 550.981 541.9C551.42 542.217 551.929 542.376 552.507 542.376C552.806 542.376 553.114 542.325 553.431 542.222C553.758 542.119 554.057 541.956 554.327 541.732C554.598 541.508 554.808 541.219 554.957 540.864L556.539 541.774C556.334 542.269 556.012 542.689 555.573 543.034C555.135 543.37 554.64 543.631 554.089 543.818C553.539 543.995 552.993 544.084 552.451 544.084C551.742 544.084 551.093 543.939 550.505 543.65C549.927 543.351 549.423 542.959 548.993 542.474C548.564 541.979 548.228 541.429 547.985 540.822C547.752 540.206 547.635 539.585 547.635 538.96ZM551.035 548.06H552.995L556.649 558H554.661L553.737 555.522H550.265L549.355 558H547.367L551.035 548.06ZM553.387 554.164L552.015 550.062L550.587 554.164H553.387ZM552.369 573.778V571.692H548.281V570.026L552.971 564.006H554.245V570.012H555.477V571.692H554.245V573.778H552.369ZM550.157 570.012H552.579V566.848L550.157 570.012Z" fill="url(#paint0_linear_1293_254)"/>
<path d="M100 8V687" stroke="url(#paint1_linear_1293_254)"/>
<path d="M201 8V687" stroke="url(#paint2_linear_1293_254)"/>
<path d="M302 8V687" stroke="url(#paint3_linear_1293_254)"/>
<path d="M403 8V687" stroke="url(#paint4_linear_1293_254)"/>
<path d="M504 8V687" stroke="url(#paint5_linear_1293_254)"/>
<path d="M605 8V687" stroke="url(#paint6_linear_1293_254)"/>
<path d="M15 614.815L694 614.815" stroke="url(#paint7_linear_1293_254)"/>
<path d="M17.7317 513.852L696.732 513.852" stroke="url(#paint8_linear_1293_254)"/>
<path d="M20.4635 412.889L699.464 412.889" stroke="url(#paint9_linear_1293_254)"/>
<path d="M23.1953 311.926L702.195 311.926" stroke="url(#paint10_linear_1293_254)"/>
<path d="M25.9271 210.963L704.927 210.963" stroke="url(#paint11_linear_1293_254)"/>
<path d="M28.6588 110L707.659 110" stroke="url(#paint12_linear_1293_254)"/>
<path d="M434.615 140.06C434.615 140.676 434.447 141.217 434.111 141.684C433.785 142.141 433.346 142.496 432.795 142.748C432.245 143 431.643 143.126 430.989 143.126C430.327 143.126 429.72 142.995 429.169 142.734C428.628 142.463 428.194 142.095 427.867 141.628C427.55 141.152 427.391 140.606 427.391 139.99C427.391 139.617 427.471 139.281 427.629 138.982C427.788 138.674 427.984 138.413 428.217 138.198C428.46 137.983 428.703 137.811 428.945 137.68C428.6 137.512 428.306 137.26 428.063 136.924C427.821 136.588 427.699 136.219 427.699 135.818C427.699 135.37 427.797 134.978 427.993 134.642C428.189 134.297 428.451 134.007 428.777 133.774C429.104 133.541 429.459 133.363 429.841 133.242C430.233 133.121 430.621 133.06 431.003 133.06C431.377 133.06 431.759 133.121 432.151 133.242C432.543 133.354 432.903 133.527 433.229 133.76C433.556 133.993 433.817 134.283 434.013 134.628C434.219 134.964 434.321 135.356 434.321 135.804C434.321 136.205 434.195 136.579 433.943 136.924C433.691 137.269 433.388 137.521 433.033 137.68C433.444 137.885 433.808 138.193 434.125 138.604C434.452 139.005 434.615 139.491 434.615 140.06ZM429.603 135.874C429.603 136.126 429.673 136.341 429.813 136.518C429.953 136.695 430.131 136.831 430.345 136.924C430.56 137.008 430.779 137.05 431.003 137.05C431.218 137.05 431.433 137.008 431.647 136.924C431.862 136.831 432.039 136.695 432.179 136.518C432.329 136.341 432.403 136.121 432.403 135.86C432.403 135.515 432.263 135.239 431.983 135.034C431.703 134.829 431.372 134.726 430.989 134.726C430.616 134.726 430.289 134.833 430.009 135.048C429.739 135.253 429.603 135.529 429.603 135.874ZM432.711 139.948C432.711 139.631 432.627 139.365 432.459 139.15C432.291 138.926 432.077 138.758 431.815 138.646C431.554 138.525 431.279 138.464 430.989 138.464C430.691 138.464 430.411 138.525 430.149 138.646C429.897 138.767 429.692 138.94 429.533 139.164C429.375 139.388 429.295 139.649 429.295 139.948C429.295 140.247 429.379 140.508 429.547 140.732C429.715 140.947 429.93 141.119 430.191 141.25C430.453 141.371 430.723 141.432 431.003 141.432C431.302 141.432 431.577 141.367 431.829 141.236C432.091 141.105 432.301 140.933 432.459 140.718C432.627 140.494 432.711 140.237 432.711 139.948ZM434.121 155.306V157H428.437V155.306H430.425V151.064C430.313 151.204 430.122 151.353 429.851 151.512C429.59 151.671 429.3 151.806 428.983 151.918C428.675 152.03 428.4 152.086 428.157 152.086V150.336C428.325 150.336 428.526 150.285 428.759 150.182C429.002 150.07 429.24 149.939 429.473 149.79C429.716 149.641 429.921 149.496 430.089 149.356C430.266 149.207 430.378 149.09 430.425 149.006H432.343V155.306H434.121ZM434.61 166.898C434.61 167.719 434.452 168.452 434.134 169.096C433.826 169.731 433.397 170.23 432.846 170.594C432.305 170.958 431.689 171.14 430.998 171.14C430.308 171.14 429.687 170.958 429.136 170.594C428.595 170.23 428.166 169.731 427.848 169.096C427.54 168.452 427.386 167.719 427.386 166.898C427.386 166.077 427.54 165.349 427.848 164.714C428.166 164.07 428.595 163.566 429.136 163.202C429.687 162.829 430.308 162.642 430.998 162.642C431.689 162.642 432.305 162.829 432.846 163.202C433.397 163.566 433.826 164.07 434.134 164.714C434.452 165.349 434.61 166.077 434.61 166.898ZM432.72 166.898C432.72 166.151 432.557 165.545 432.23 165.078C431.913 164.602 431.502 164.364 430.998 164.364C430.476 164.364 430.056 164.602 429.738 165.078C429.421 165.545 429.262 166.151 429.262 166.898C429.262 167.645 429.421 168.251 429.738 168.718C430.056 169.185 430.476 169.418 430.998 169.418C431.502 169.418 431.913 169.185 432.23 168.718C432.557 168.251 432.72 167.645 432.72 166.898ZM426.635 179.96C426.635 179.353 426.743 178.756 426.957 178.168C427.181 177.58 427.503 177.048 427.923 176.572C428.343 176.096 428.857 175.718 429.463 175.438C430.07 175.149 430.761 175.004 431.535 175.004C432.441 175.004 433.229 175.205 433.901 175.606C434.573 176.007 435.073 176.53 435.399 177.174L433.915 178.196C433.747 177.823 433.528 177.529 433.257 177.314C432.987 177.099 432.693 176.945 432.375 176.852C432.067 176.759 431.769 176.712 431.479 176.712C430.994 176.712 430.569 176.81 430.205 177.006C429.851 177.202 429.552 177.459 429.309 177.776C429.067 178.093 428.885 178.448 428.763 178.84C428.651 179.232 428.595 179.624 428.595 180.016C428.595 180.604 428.717 181.155 428.959 181.668C429.202 182.172 429.543 182.583 429.981 182.9C430.42 183.217 430.929 183.376 431.507 183.376C431.806 183.376 432.114 183.325 432.431 183.222C432.758 183.119 433.057 182.956 433.327 182.732C433.598 182.508 433.808 182.219 433.957 181.864L435.539 182.774C435.334 183.269 435.012 183.689 434.573 184.034C434.135 184.37 433.64 184.631 433.089 184.818C432.539 184.995 431.993 185.084 431.451 185.084C430.742 185.084 430.093 184.939 429.505 184.65C428.927 184.351 428.423 183.959 427.993 183.474C427.564 182.979 427.228 182.429 426.985 181.822C426.752 181.206 426.635 180.585 426.635 179.96ZM430.035 189.06H431.995L435.649 199H433.661L432.737 196.522H429.265L428.355 199H426.367L430.035 189.06ZM432.387 195.164L431.015 191.062L429.587 195.164H432.387ZM431.369 214.778V212.692H427.281V211.026L431.971 205.006H433.245V211.012H434.477V212.692H433.245V214.778H431.369ZM429.157 211.012H431.579V207.848L429.157 211.012ZM434.686 223.682C434.686 224.326 434.523 224.909 434.196 225.432C433.879 225.955 433.445 226.37 432.894 226.678C432.353 226.986 431.737 227.14 431.046 227.14C430.299 227.14 429.651 226.958 429.1 226.594C428.549 226.23 428.125 225.707 427.826 225.026C427.537 224.345 427.392 223.528 427.392 222.576C427.392 220.765 427.737 219.384 428.428 218.432C429.128 217.471 430.066 216.99 431.242 216.99C431.867 216.99 432.441 217.125 432.964 217.396C433.496 217.667 433.944 218.054 434.308 218.558L433.23 219.734C433.006 219.389 432.717 219.118 432.362 218.922C432.007 218.717 431.625 218.614 431.214 218.614C430.589 218.614 430.089 218.866 429.716 219.37C429.343 219.865 429.147 220.56 429.128 221.456C429.324 221.12 429.604 220.854 429.968 220.658C430.332 220.462 430.747 220.364 431.214 220.364C431.867 220.364 432.455 220.513 432.978 220.812C433.501 221.101 433.916 221.498 434.224 222.002C434.532 222.497 434.686 223.057 434.686 223.682ZM431.06 225.558C431.387 225.558 431.69 225.474 431.97 225.306C432.25 225.129 432.474 224.9 432.642 224.62C432.81 224.331 432.894 224.018 432.894 223.682C432.894 223.346 432.81 223.043 432.642 222.772C432.474 222.492 432.25 222.273 431.97 222.114C431.69 221.946 431.387 221.862 431.06 221.862C430.724 221.862 430.416 221.946 430.136 222.114C429.856 222.273 429.632 222.492 429.464 222.772C429.305 223.043 429.226 223.346 429.226 223.682C429.226 224.018 429.31 224.331 429.478 224.62C429.646 224.9 429.865 225.129 430.136 225.306C430.416 225.474 430.724 225.558 431.06 225.558ZM428.016 241V231.06H434.694V232.754H429.948V235.316H433.896V236.884H429.948V241H428.016Z" fill="url(#paint13_linear_1293_254)"/>
<path d="M326.621 193.306V195H320.937V193.306H322.925V189.064C322.813 189.204 322.622 189.353 322.351 189.512C322.09 189.671 321.8 189.806 321.483 189.918C321.175 190.03 320.9 190.086 320.657 190.086V188.336C320.825 188.336 321.026 188.285 321.259 188.182C321.502 188.07 321.74 187.939 321.973 187.79C322.216 187.641 322.421 187.496 322.589 187.356C322.766 187.207 322.878 187.09 322.925 187.006H324.843V193.306H326.621ZM326.621 207.306V209H320.937V207.306H322.925V203.064C322.813 203.204 322.622 203.353 322.351 203.512C322.09 203.671 321.8 203.806 321.483 203.918C321.175 204.03 320.9 204.086 320.657 204.086V202.336C320.825 202.336 321.026 202.285 321.259 202.182C321.502 202.07 321.74 201.939 321.973 201.79C322.216 201.641 322.421 201.496 322.589 201.356C322.766 201.207 322.878 201.09 322.925 201.006H324.843V207.306H326.621ZM327.11 218.898C327.11 219.719 326.952 220.452 326.634 221.096C326.326 221.731 325.897 222.23 325.346 222.594C324.805 222.958 324.189 223.14 323.498 223.14C322.808 223.14 322.187 222.958 321.636 222.594C321.095 222.23 320.666 221.731 320.348 221.096C320.04 220.452 319.886 219.719 319.886 218.898C319.886 218.077 320.04 217.349 320.348 216.714C320.666 216.07 321.095 215.566 321.636 215.202C322.187 214.829 322.808 214.642 323.498 214.642C324.189 214.642 324.805 214.829 325.346 215.202C325.897 215.566 326.326 216.07 326.634 216.714C326.952 217.349 327.11 218.077 327.11 218.898ZM325.22 218.898C325.22 218.151 325.057 217.545 324.73 217.078C324.413 216.602 324.002 216.364 323.498 216.364C322.976 216.364 322.556 216.602 322.238 217.078C321.921 217.545 321.762 218.151 321.762 218.898C321.762 219.645 321.921 220.251 322.238 220.718C322.556 221.185 322.976 221.418 323.498 221.418C324.002 221.418 324.413 221.185 324.73 220.718C325.057 220.251 325.22 219.645 325.22 218.898ZM326.621 235.306V237H320.937V235.306H322.925V231.064C322.813 231.204 322.622 231.353 322.351 231.512C322.09 231.671 321.8 231.806 321.483 231.918C321.175 232.03 320.9 232.086 320.657 232.086V230.336C320.825 230.336 321.026 230.285 321.259 230.182C321.502 230.07 321.74 229.939 321.973 229.79C322.216 229.641 322.421 229.496 322.589 229.356C322.766 229.207 322.878 229.09 322.925 229.006H324.843V235.306H326.621ZM326.621 249.306V251H320.937V249.306H322.925V245.064C322.813 245.204 322.622 245.353 322.351 245.512C322.09 245.671 321.8 245.806 321.483 245.918C321.175 246.03 320.9 246.086 320.657 246.086V244.336C320.825 244.336 321.026 244.285 321.259 244.182C321.502 244.07 321.74 243.939 321.973 243.79C322.216 243.641 322.421 243.496 322.589 243.356C322.766 243.207 322.878 243.09 322.925 243.006H324.843V249.306H326.621ZM326.621 263.306V265H320.937V263.306H322.925V259.064C322.813 259.204 322.622 259.353 322.351 259.512C322.09 259.671 321.8 259.806 321.483 259.918C321.175 260.03 320.9 260.086 320.657 260.086V258.336C320.825 258.336 321.026 258.285 321.259 258.182C321.502 258.07 321.74 257.939 321.973 257.79C322.216 257.641 322.421 257.496 322.589 257.356C322.766 257.207 322.878 257.09 322.925 257.006H324.843V263.306H326.621ZM327.11 274.898C327.11 275.719 326.952 276.452 326.634 277.096C326.326 277.731 325.897 278.23 325.346 278.594C324.805 278.958 324.189 279.14 323.498 279.14C322.808 279.14 322.187 278.958 321.636 278.594C321.095 278.23 320.666 277.731 320.348 277.096C320.04 276.452 319.886 275.719 319.886 274.898C319.886 274.077 320.04 273.349 320.348 272.714C320.666 272.07 321.095 271.566 321.636 271.202C322.187 270.829 322.808 270.642 323.498 270.642C324.189 270.642 324.805 270.829 325.346 271.202C325.897 271.566 326.326 272.07 326.634 272.714C326.952 273.349 327.11 274.077 327.11 274.898ZM325.22 274.898C325.22 274.151 325.057 273.545 324.73 273.078C324.413 272.602 324.002 272.364 323.498 272.364C322.976 272.364 322.556 272.602 322.238 273.078C321.921 273.545 321.762 274.151 321.762 274.898C321.762 275.645 321.921 276.251 322.238 276.718C322.556 277.185 322.976 277.418 323.498 277.418C324.002 277.418 324.413 277.185 324.73 276.718C325.057 276.251 325.22 275.645 325.22 274.898ZM326.621 291.306V293H320.937V291.306H322.925V287.064C322.813 287.204 322.622 287.353 322.351 287.512C322.09 287.671 321.8 287.806 321.483 287.918C321.175 288.03 320.9 288.086 320.657 288.086V286.336C320.825 286.336 321.026 286.285 321.259 286.182C321.502 286.07 321.74 285.939 321.973 285.79C322.216 285.641 322.421 285.496 322.589 285.356C322.766 285.207 322.878 285.09 322.925 285.006H324.843V291.306H326.621ZM327.11 302.898C327.11 303.719 326.952 304.452 326.634 305.096C326.326 305.731 325.897 306.23 325.346 306.594C324.805 306.958 324.189 307.14 323.498 307.14C322.808 307.14 322.187 306.958 321.636 306.594C321.095 306.23 320.666 305.731 320.348 305.096C320.04 304.452 319.886 303.719 319.886 302.898C319.886 302.077 320.04 301.349 320.348 300.714C320.666 300.07 321.095 299.566 321.636 299.202C322.187 298.829 322.808 298.642 323.498 298.642C324.189 298.642 324.805 298.829 325.346 299.202C325.897 299.566 326.326 300.07 326.634 300.714C326.952 301.349 327.11 302.077 327.11 302.898ZM325.22 302.898C325.22 302.151 325.057 301.545 324.73 301.078C324.413 300.602 324.002 300.364 323.498 300.364C322.976 300.364 322.556 300.602 322.238 301.078C321.921 301.545 321.762 302.151 321.762 302.898C321.762 303.645 321.921 304.251 322.238 304.718C322.556 305.185 322.976 305.418 323.498 305.418C324.002 305.418 324.413 305.185 324.73 304.718C325.057 304.251 325.22 303.645 325.22 302.898ZM326.621 319.306V321H320.937V319.306H322.925V315.064C322.813 315.204 322.622 315.353 322.351 315.512C322.09 315.671 321.8 315.806 321.483 315.918C321.175 316.03 320.9 316.086 320.657 316.086V314.336C320.825 314.336 321.026 314.285 321.259 314.182C321.502 314.07 321.74 313.939 321.973 313.79C322.216 313.641 322.421 313.496 322.589 313.356C322.766 313.207 322.878 313.09 322.925 313.006H324.843V319.306H326.621ZM327.11 330.898C327.11 331.719 326.952 332.452 326.634 333.096C326.326 333.731 325.897 334.23 325.346 334.594C324.805 334.958 324.189 335.14 323.498 335.14C322.808 335.14 322.187 334.958 321.636 334.594C321.095 334.23 320.666 333.731 320.348 333.096C320.04 332.452 319.886 331.719 319.886 330.898C319.886 330.077 320.04 329.349 320.348 328.714C320.666 328.07 321.095 327.566 321.636 327.202C322.187 326.829 322.808 326.642 323.498 326.642C324.189 326.642 324.805 326.829 325.346 327.202C325.897 327.566 326.326 328.07 326.634 328.714C326.952 329.349 327.11 330.077 327.11 330.898ZM325.22 330.898C325.22 330.151 325.057 329.545 324.73 329.078C324.413 328.602 324.002 328.364 323.498 328.364C322.976 328.364 322.556 328.602 322.238 329.078C321.921 329.545 321.762 330.151 321.762 330.898C321.762 331.645 321.921 332.251 322.238 332.718C322.556 333.185 322.976 333.418 323.498 333.418C324.002 333.418 324.413 333.185 324.73 332.718C325.057 332.251 325.22 331.645 325.22 330.898ZM326.621 347.306V349H320.937V347.306H322.925V343.064C322.813 343.204 322.622 343.353 322.351 343.512C322.09 343.671 321.8 343.806 321.483 343.918C321.175 344.03 320.9 344.086 320.657 344.086V342.336C320.825 342.336 321.026 342.285 321.259 342.182C321.502 342.07 321.74 341.939 321.973 341.79C322.216 341.641 322.421 341.496 322.589 341.356C322.766 341.207 322.878 341.09 322.925 341.006H324.843V347.306H326.621ZM326.621 361.306V363H320.937V361.306H322.925V357.064C322.813 357.204 322.622 357.353 322.351 357.512C322.09 357.671 321.8 357.806 321.483 357.918C321.175 358.03 320.9 358.086 320.657 358.086V356.336C320.825 356.336 321.026 356.285 321.259 356.182C321.502 356.07 321.74 355.939 321.973 355.79C322.216 355.641 322.421 355.496 322.589 355.356C322.766 355.207 322.878 355.09 322.925 355.006H324.843V361.306H326.621ZM327.11 372.898C327.11 373.719 326.952 374.452 326.634 375.096C326.326 375.731 325.897 376.23 325.346 376.594C324.805 376.958 324.189 377.14 323.498 377.14C322.808 377.14 322.187 376.958 321.636 376.594C321.095 376.23 320.666 375.731 320.348 375.096C320.04 374.452 319.886 373.719 319.886 372.898C319.886 372.077 320.04 371.349 320.348 370.714C320.666 370.07 321.095 369.566 321.636 369.202C322.187 368.829 322.808 368.642 323.498 368.642C324.189 368.642 324.805 368.829 325.346 369.202C325.897 369.566 326.326 370.07 326.634 370.714C326.952 371.349 327.11 372.077 327.11 372.898ZM325.22 372.898C325.22 372.151 325.057 371.545 324.73 371.078C324.413 370.602 324.002 370.364 323.498 370.364C322.976 370.364 322.556 370.602 322.238 371.078C321.921 371.545 321.762 372.151 321.762 372.898C321.762 373.645 321.921 374.251 322.238 374.718C322.556 375.185 322.976 375.418 323.498 375.418C324.002 375.418 324.413 375.185 324.73 374.718C325.057 374.251 325.22 373.645 325.22 372.898ZM326.621 389.306V391H320.937V389.306H322.925V385.064C322.813 385.204 322.622 385.353 322.351 385.512C322.09 385.671 321.8 385.806 321.483 385.918C321.175 386.03 320.9 386.086 320.657 386.086V384.336C320.825 384.336 321.026 384.285 321.259 384.182C321.502 384.07 321.74 383.939 321.973 383.79C322.216 383.641 322.421 383.496 322.589 383.356C322.766 383.207 322.878 383.09 322.925 383.006H324.843V389.306H326.621ZM326.621 403.306V405H320.937V403.306H322.925V399.064C322.813 399.204 322.622 399.353 322.351 399.512C322.09 399.671 321.8 399.806 321.483 399.918C321.175 400.03 320.9 400.086 320.657 400.086V398.336C320.825 398.336 321.026 398.285 321.259 398.182C321.502 398.07 321.74 397.939 321.973 397.79C322.216 397.641 322.421 397.496 322.589 397.356C322.766 397.207 322.878 397.09 322.925 397.006H324.843V403.306H326.621ZM326.621 417.306V419H320.937V417.306H322.925V413.064C322.813 413.204 322.622 413.353 322.351 413.512C322.09 413.671 321.8 413.806 321.483 413.918C321.175 414.03 320.9 414.086 320.657 414.086V412.336C320.825 412.336 321.026 412.285 321.259 412.182C321.502 412.07 321.74 411.939 321.973 411.79C322.216 411.641 322.421 411.496 322.589 411.356C322.766 411.207 322.878 411.09 322.925 411.006H324.843V417.306H326.621ZM327.11 428.898C327.11 429.719 326.952 430.452 326.634 431.096C326.326 431.731 325.897 432.23 325.346 432.594C324.805 432.958 324.189 433.14 323.498 433.14C322.808 433.14 322.187 432.958 321.636 432.594C321.095 432.23 320.666 431.731 320.348 431.096C320.04 430.452 319.886 429.719 319.886 428.898C319.886 428.077 320.04 427.349 320.348 426.714C320.666 426.07 321.095 425.566 321.636 425.202C322.187 424.829 322.808 424.642 323.498 424.642C324.189 424.642 324.805 424.829 325.346 425.202C325.897 425.566 326.326 426.07 326.634 426.714C326.952 427.349 327.11 428.077 327.11 428.898ZM325.22 428.898C325.22 428.151 325.057 427.545 324.73 427.078C324.413 426.602 324.002 426.364 323.498 426.364C322.976 426.364 322.556 426.602 322.238 427.078C321.921 427.545 321.762 428.151 321.762 428.898C321.762 429.645 321.921 430.251 322.238 430.718C322.556 431.185 322.976 431.418 323.498 431.418C324.002 431.418 324.413 431.185 324.73 430.718C325.057 430.251 325.22 429.645 325.22 428.898ZM326.621 445.306V447H320.937V445.306H322.925V441.064C322.813 441.204 322.622 441.353 322.351 441.512C322.09 441.671 321.8 441.806 321.483 441.918C321.175 442.03 320.9 442.086 320.657 442.086V440.336C320.825 440.336 321.026 440.285 321.259 440.182C321.502 440.07 321.74 439.939 321.973 439.79C322.216 439.641 322.421 439.496 322.589 439.356C322.766 439.207 322.878 439.09 322.925 439.006H324.843V445.306H326.621ZM327.11 456.898C327.11 457.719 326.952 458.452 326.634 459.096C326.326 459.731 325.897 460.23 325.346 460.594C324.805 460.958 324.189 461.14 323.498 461.14C322.808 461.14 322.187 460.958 321.636 460.594C321.095 460.23 320.666 459.731 320.348 459.096C320.04 458.452 319.886 457.719 319.886 456.898C319.886 456.077 320.04 455.349 320.348 454.714C320.666 454.07 321.095 453.566 321.636 453.202C322.187 452.829 322.808 452.642 323.498 452.642C324.189 452.642 324.805 452.829 325.346 453.202C325.897 453.566 326.326 454.07 326.634 454.714C326.952 455.349 327.11 456.077 327.11 456.898ZM325.22 456.898C325.22 456.151 325.057 455.545 324.73 455.078C324.413 454.602 324.002 454.364 323.498 454.364C322.976 454.364 322.556 454.602 322.238 455.078C321.921 455.545 321.762 456.151 321.762 456.898C321.762 457.645 321.921 458.251 322.238 458.718C322.556 459.185 322.976 459.418 323.498 459.418C324.002 459.418 324.413 459.185 324.73 458.718C325.057 458.251 325.22 457.645 325.22 456.898ZM326.621 473.306V475H320.937V473.306H322.925V469.064C322.813 469.204 322.622 469.353 322.351 469.512C322.09 469.671 321.8 469.806 321.483 469.918C321.175 470.03 320.9 470.086 320.657 470.086V468.336C320.825 468.336 321.026 468.285 321.259 468.182C321.502 468.07 321.74 467.939 321.973 467.79C322.216 467.641 322.421 467.496 322.589 467.356C322.766 467.207 322.878 467.09 322.925 467.006H324.843V473.306H326.621ZM327.11 484.898C327.11 485.719 326.952 486.452 326.634 487.096C326.326 487.731 325.897 488.23 325.346 488.594C324.805 488.958 324.189 489.14 323.498 489.14C322.808 489.14 322.187 488.958 321.636 488.594C321.095 488.23 320.666 487.731 320.348 487.096C320.04 486.452 319.886 485.719 319.886 484.898C319.886 484.077 320.04 483.349 320.348 482.714C320.666 482.07 321.095 481.566 321.636 481.202C322.187 480.829 322.808 480.642 323.498 480.642C324.189 480.642 324.805 480.829 325.346 481.202C325.897 481.566 326.326 482.07 326.634 482.714C326.952 483.349 327.11 484.077 327.11 484.898ZM325.22 484.898C325.22 484.151 325.057 483.545 324.73 483.078C324.413 482.602 324.002 482.364 323.498 482.364C322.976 482.364 322.556 482.602 322.238 483.078C321.921 483.545 321.762 484.151 321.762 484.898C321.762 485.645 321.921 486.251 322.238 486.718C322.556 487.185 322.976 487.418 323.498 487.418C324.002 487.418 324.413 487.185 324.73 486.718C325.057 486.251 325.22 485.645 325.22 484.898Z" fill="url(#paint14_linear_1293_254)"/>
<path d="M664.621 180.306V182H658.937V180.306H660.925V176.064C660.813 176.204 660.622 176.353 660.351 176.512C660.09 176.671 659.8 176.806 659.483 176.918C659.175 177.03 658.9 177.086 658.657 177.086V175.336C658.825 175.336 659.026 175.285 659.259 175.182C659.502 175.07 659.74 174.939 659.973 174.79C660.216 174.641 660.421 174.496 660.589 174.356C660.766 174.207 660.878 174.09 660.925 174.006H662.843V180.306H664.621ZM664.621 194.306V196H658.937V194.306H660.925V190.064C660.813 190.204 660.622 190.353 660.351 190.512C660.09 190.671 659.8 190.806 659.483 190.918C659.175 191.03 658.9 191.086 658.657 191.086V189.336C658.825 189.336 659.026 189.285 659.259 189.182C659.502 189.07 659.74 188.939 659.973 188.79C660.216 188.641 660.421 188.496 660.589 188.356C660.766 188.207 660.878 188.09 660.925 188.006H662.843V194.306H664.621ZM665.11 205.898C665.11 206.719 664.952 207.452 664.634 208.096C664.326 208.731 663.897 209.23 663.346 209.594C662.805 209.958 662.189 210.14 661.498 210.14C660.808 210.14 660.187 209.958 659.636 209.594C659.095 209.23 658.666 208.731 658.348 208.096C658.04 207.452 657.886 206.719 657.886 205.898C657.886 205.077 658.04 204.349 658.348 203.714C658.666 203.07 659.095 202.566 659.636 202.202C660.187 201.829 660.808 201.642 661.498 201.642C662.189 201.642 662.805 201.829 663.346 202.202C663.897 202.566 664.326 203.07 664.634 203.714C664.952 204.349 665.11 205.077 665.11 205.898ZM663.22 205.898C663.22 205.151 663.057 204.545 662.73 204.078C662.413 203.602 662.002 203.364 661.498 203.364C660.976 203.364 660.556 203.602 660.238 204.078C659.921 204.545 659.762 205.151 659.762 205.898C659.762 206.645 659.921 207.251 660.238 207.718C660.556 208.185 660.976 208.418 661.498 208.418C662.002 208.418 662.413 208.185 662.73 207.718C663.057 207.251 663.22 206.645 663.22 205.898ZM664.621 222.306V224H658.937V222.306H660.925V218.064C660.813 218.204 660.622 218.353 660.351 218.512C660.09 218.671 659.8 218.806 659.483 218.918C659.175 219.03 658.9 219.086 658.657 219.086V217.336C658.825 217.336 659.026 217.285 659.259 217.182C659.502 217.07 659.74 216.939 659.973 216.79C660.216 216.641 660.421 216.496 660.589 216.356C660.766 216.207 660.878 216.09 660.925 216.006H662.843V222.306H664.621ZM664.621 236.306V238H658.937V236.306H660.925V232.064C660.813 232.204 660.622 232.353 660.351 232.512C660.09 232.671 659.8 232.806 659.483 232.918C659.175 233.03 658.9 233.086 658.657 233.086V231.336C658.825 231.336 659.026 231.285 659.259 231.182C659.502 231.07 659.74 230.939 659.973 230.79C660.216 230.641 660.421 230.496 660.589 230.356C660.766 230.207 660.878 230.09 660.925 230.006H662.843V236.306H664.621ZM664.621 250.306V252H658.937V250.306H660.925V246.064C660.813 246.204 660.622 246.353 660.351 246.512C660.09 246.671 659.8 246.806 659.483 246.918C659.175 247.03 658.9 247.086 658.657 247.086V245.336C658.825 245.336 659.026 245.285 659.259 245.182C659.502 245.07 659.74 244.939 659.973 244.79C660.216 244.641 660.421 244.496 660.589 244.356C660.766 244.207 660.878 244.09 660.925 244.006H662.843V250.306H664.621ZM665.11 261.898C665.11 262.719 664.952 263.452 664.634 264.096C664.326 264.731 663.897 265.23 663.346 265.594C662.805 265.958 662.189 266.14 661.498 266.14C660.808 266.14 660.187 265.958 659.636 265.594C659.095 265.23 658.666 264.731 658.348 264.096C658.04 263.452 657.886 262.719 657.886 261.898C657.886 261.077 658.04 260.349 658.348 259.714C658.666 259.07 659.095 258.566 659.636 258.202C660.187 257.829 660.808 257.642 661.498 257.642C662.189 257.642 662.805 257.829 663.346 258.202C663.897 258.566 664.326 259.07 664.634 259.714C664.952 260.349 665.11 261.077 665.11 261.898ZM663.22 261.898C663.22 261.151 663.057 260.545 662.73 260.078C662.413 259.602 662.002 259.364 661.498 259.364C660.976 259.364 660.556 259.602 660.238 260.078C659.921 260.545 659.762 261.151 659.762 261.898C659.762 262.645 659.921 263.251 660.238 263.718C660.556 264.185 660.976 264.418 661.498 264.418C662.002 264.418 662.413 264.185 662.73 263.718C663.057 263.251 663.22 262.645 663.22 261.898ZM664.621 278.306V280H658.937V278.306H660.925V274.064C660.813 274.204 660.622 274.353 660.351 274.512C660.09 274.671 659.8 274.806 659.483 274.918C659.175 275.03 658.9 275.086 658.657 275.086V273.336C658.825 273.336 659.026 273.285 659.259 273.182C659.502 273.07 659.74 272.939 659.973 272.79C660.216 272.641 660.421 272.496 660.589 272.356C660.766 272.207 660.878 272.09 660.925 272.006H662.843V278.306H664.621ZM665.11 289.898C665.11 290.719 664.952 291.452 664.634 292.096C664.326 292.731 663.897 293.23 663.346 293.594C662.805 293.958 662.189 294.14 661.498 294.14C660.808 294.14 660.187 293.958 659.636 293.594C659.095 293.23 658.666 292.731 658.348 292.096C658.04 291.452 657.886 290.719 657.886 289.898C657.886 289.077 658.04 288.349 658.348 287.714C658.666 287.07 659.095 286.566 659.636 286.202C660.187 285.829 660.808 285.642 661.498 285.642C662.189 285.642 662.805 285.829 663.346 286.202C663.897 286.566 664.326 287.07 664.634 287.714C664.952 288.349 665.11 289.077 665.11 289.898ZM663.22 289.898C663.22 289.151 663.057 288.545 662.73 288.078C662.413 287.602 662.002 287.364 661.498 287.364C660.976 287.364 660.556 287.602 660.238 288.078C659.921 288.545 659.762 289.151 659.762 289.898C659.762 290.645 659.921 291.251 660.238 291.718C660.556 292.185 660.976 292.418 661.498 292.418C662.002 292.418 662.413 292.185 662.73 291.718C663.057 291.251 663.22 290.645 663.22 289.898ZM664.621 306.306V308H658.937V306.306H660.925V302.064C660.813 302.204 660.622 302.353 660.351 302.512C660.09 302.671 659.8 302.806 659.483 302.918C659.175 303.03 658.9 303.086 658.657 303.086V301.336C658.825 301.336 659.026 301.285 659.259 301.182C659.502 301.07 659.74 300.939 659.973 300.79C660.216 300.641 660.421 300.496 660.589 300.356C660.766 300.207 660.878 300.09 660.925 300.006H662.843V306.306H664.621ZM665.11 317.898C665.11 318.719 664.952 319.452 664.634 320.096C664.326 320.731 663.897 321.23 663.346 321.594C662.805 321.958 662.189 322.14 661.498 322.14C660.808 322.14 660.187 321.958 659.636 321.594C659.095 321.23 658.666 320.731 658.348 320.096C658.04 319.452 657.886 318.719 657.886 317.898C657.886 317.077 658.04 316.349 658.348 315.714C658.666 315.07 659.095 314.566 659.636 314.202C660.187 313.829 660.808 313.642 661.498 313.642C662.189 313.642 662.805 313.829 663.346 314.202C663.897 314.566 664.326 315.07 664.634 315.714C664.952 316.349 665.11 317.077 665.11 317.898ZM663.22 317.898C663.22 317.151 663.057 316.545 662.73 316.078C662.413 315.602 662.002 315.364 661.498 315.364C660.976 315.364 660.556 315.602 660.238 316.078C659.921 316.545 659.762 317.151 659.762 317.898C659.762 318.645 659.921 319.251 660.238 319.718C660.556 320.185 660.976 320.418 661.498 320.418C662.002 320.418 662.413 320.185 662.73 319.718C663.057 319.251 663.22 318.645 663.22 317.898Z" fill="url(#paint15_linear_1293_254)"/>
<path d="M230.811 307.222C371.967 182.052 473.327 173.209 622.646 307.222C476.728 439.874 368.906 433.411 230.811 307.222Z" fill="#E83752"/>
<circle cx="426.729" cy="307.278" r="74.1492" fill="#0A0909"/>
<path d="M415.844 356.938L418.906 296.394C411.423 292.653 407.001 287.551 406.321 277.687C406.321 265.442 415.504 257.619 426.729 257.619C437.613 257.619 446.456 266.462 446.456 277.687C446.456 286.87 439.314 295.714 431.831 296.394L433.871 327.006H440.674V337.21H435.232V341.972H445.776V356.938H415.844Z" fill="#E83752"/>
<path d="M447.296 439.128H410.383V467.874C410.383 474.733 416.828 481.299 423.273 481.299H447.296V470.939H424.152C420.344 470.939 419.465 468.896 419.465 465.686H441.876V455.179H419.465V449.634L447.443 449.926L447.296 439.128Z" fill="#F5F0F1"/>
<path d="M494.903 439.128H452.863V465.686H484.649V470.939H452.863V481.299H494.903V464.81C494.903 459.119 489.483 455.179 485.235 455.179H463.263V449.634H494.903V439.128Z" fill="#F5F0F1"/>
<path d="M537.237 439.128H500.469V468.312C500.469 474.441 506.329 481.299 513.653 481.299H537.237V470.939H513.653C510.723 470.939 509.258 468.75 509.258 465.686H531.817V455.179H509.258V449.634H537.237V439.128Z" fill="#F5F0F1"/>
<path d="M552.617 439.128C547.051 439.128 542.51 444.381 542.51 449.634V467.583C542.51 474.003 548.369 481.299 555.84 481.299H579.423V470.939H561.113C557.012 470.939 553.203 468.166 553.203 464.372V449.634H579.423V439.128H552.617Z" fill="#F5F0F1"/>
<path fill-rule="evenodd" clip-rule="evenodd" d="M310.042 439.128H282.65C278.402 439.128 272.982 443.214 272.982 448.905V468.896C272.982 473.565 278.841 481.299 286.605 481.299H315.316V470.939H325.862V481.299H340.511C349.603 479.237 353.79 476.485 357.649 465.248V456.055C357.649 447.883 347.102 439.128 340.95 439.128H332.894C323.519 439.128 315.316 448.175 315.316 455.617V470.939H291C286.459 470.939 283.529 468.02 283.529 463.351V449.634H310.042V439.128ZM325.862 470.939V458.536C325.862 452.991 331.575 449.926 336.556 449.926C342.122 449.926 347.102 454.158 347.102 460.432C347.102 465.977 342.415 470.939 338.167 470.939H325.862Z" fill="#F5F0F1"/>
<path fill-rule="evenodd" clip-rule="evenodd" d="M362.776 439.128V481.299H382.551C396.174 481.299 404.963 468.02 404.963 458.536V449.634H394.563V439.128H362.776ZM394.563 449.634H373.323V470.939H382.551C388.117 470.939 394.563 465.248 394.563 458.536V449.634Z" fill="#F5F0F1"/>
<rect x="228" y="210" width="395" height="193.986" fill="url(#paint16_linear_1293_254)"/>
<rect x="272.982" y="439.128" width="306.441" height="42.1708" fill="url(#paint17_linear_1293_254)"/>
<circle cx="268" cy="257" r="16" fill="url(#paint18_linear_1293_254)"/>
<circle cx="268" cy="257" r="8" fill="white"/>
<circle cx="678" cy="511" r="16" fill="url(#paint19_linear_1293_254)"/>
<path d="M668 511.004C675.205 504.562 680.378 504.106 688 511.004C680.552 517.831 675.049 517.498 668 511.004Z" fill="white"/>
<circle cx="410" cy="542" r="16" fill="url(#paint20_linear_1293_254)"/>
<path d="M407.661 551L408.195 540.027C406.89 539.349 406.119 538.425 406 536.637C406 534.418 407.602 533 409.559 533C411.458 533 413 534.603 413 536.637C413 538.301 411.754 539.904 410.449 540.027L410.805 545.575H411.992V547.425H411.042V548.288H412.881V551H407.661Z" fill="#F5F0F1"/>
<circle cx="623" cy="221" r="16" fill="url(#paint21_linear_1293_254)"/>
<path d="M618.786 218.505H620.603C620.603 216.238 621.137 214.799 623.015 214.799C624.878 214.846 625.397 216.05 625.427 218.505H627.214C627.214 215.628 626.145 213 623.015 213C620.252 213 618.786 214.924 618.786 218.505Z" fill="white"/>
<path fill-rule="evenodd" clip-rule="evenodd" d="M617 220.93C617 220.007 617.763 219.1 618.786 219.1H627.214C628.237 219.1 629 219.882 629 220.93V227.373C629 228.234 628.16 229 627.214 229H618.786C617.702 229 617 228.124 617 227.17V220.93ZM621.794 223.432C621.794 223.964 622.023 224.339 622.405 224.543V225.981C622.405 226.357 622.679 226.576 623 226.576C623.321 226.576 623.611 226.372 623.611 225.981V224.543C624.023 224.214 624.206 223.979 624.206 223.432C624.206 222.65 623.687 222.228 623 222.228C622.374 222.228 621.794 222.697 621.794 223.432Z" fill="white"/>
<g filter="url(#filter0_dddd_1293_254)">
<rect x="126" y="522" width="352" height="4" rx="2" transform="rotate(-90 126 522)" fill="#EDEFF0"/>
</g>
</g>
<defs>
<filter id="filter0_dddd_1293_254" x="-55" y="-11" width="366" height="714" filterUnits="userSpaceOnUse" color-interpolation-filters="sRGB">
<feFlood flood-opacity="0" result="BackgroundImageFix"/>
<feColorMatrix in="SourceAlpha" type="matrix" values="0 0 0 0 0 0 0 0 0 0 0 0 0 0 0 0 0 0 127 0" result="hardAlpha"/>
<feMorphology radius="1" operator="dilate" in="SourceAlpha" result="effect1_dropShadow_1293_254"/>
<feOffset/>
<feGaussianBlur stdDeviation="2"/>
<feColorMatrix type="matrix" values="0 0 0 0 0.909804 0 0 0 0 0.215686 0 0 0 0 0.321569 0 0 0 1 0"/>
<feBlend mode="normal" in2="BackgroundImageFix" result="effect1_dropShadow_1293_254"/>
<feColorMatrix in="SourceAlpha" type="matrix" values="0 0 0 0 0 0 0 0 0 0 0 0 0 0 0 0 0 0 127 0" result="hardAlpha"/>
<feMorphology radius="1" operator="dilate" in="SourceAlpha" result="effect2_dropShadow_1293_254"/>
<feOffset/>
<feGaussianBlur stdDeviation="7"/>
<feColorMatrix type="matrix" values="0 0 0 0 0.909804 0 0 0 0 0.215686 0 0 0 0 0.321569 0 0 0 0.8 0"/>
<feBlend mode="normal" in2="effect1_dropShadow_1293_254" result="effect2_dropShadow_1293_254"/>
<feColorMatrix in="SourceAlpha" type="matrix" values="0 0 0 0 0 0 0 0 0 0 0 0 0 0 0 0 0 0 127 0" result="hardAlpha"/>
<feMorphology radius="18" operator="dilate" in="SourceAlpha" result="effect3_dropShadow_1293_254"/>
<feOffset/>
<feGaussianBlur stdDeviation="48"/>
<feColorMatrix type="matrix" values="0 0 0 0 0.909804 0 0 0 0 0.215686 0 0 0 0 0.321569 0 0 0 0.5 0"/>
<feBlend mode="normal" in2="effect2_dropShadow_1293_254" result="effect3_dropShadow_1293_254"/>
<feColorMatrix in="SourceAlpha" type="matrix" values="0 0 0 0 0 0 0 0 0 0 0 0 0 0 0 0 0 0 127 0" result="hardAlpha"/>
<feMorphology radius="4" operator="dilate" in="SourceAlpha" result="effect4_dropShadow_1293_254"/>
<feOffset/>
<feGaussianBlur stdDeviation="88.5"/>
<feColorMatrix type="matrix" values="0 0 0 0 0.909804 0 0 0 0 0.215686 0 0 0 0 0.321569 0 0 0 0.7 0"/>
<feBlend mode="normal" in2="effect3_dropShadow_1293_254" result="effect4_dropShadow_1293_254"/>
<feBlend mode="normal" in="SourceGraphic" in2="effect4_dropShadow_1293_254" result="shape"/>
</filter>
<linearGradient id="paint0_linear_1293_254" x1="552" y1="70" x2="552" y2="588" gradientUnits="userSpaceOnUse">
<stop stop-color="#E83752"/>
<stop offset="0.421875" stop-color="#E83752" stop-opacity="0"/>
<stop offset="0.614583" stop-color="#E83752" stop-opacity="0"/>
<stop offset="1" stop-color="#E83752"/>
</linearGradient>
<linearGradient id="paint1_linear_1293_254" x1="100.5" y1="8" x2="100.5" y2="687" gradientUnits="userSpaceOnUse">
<stop stop-color="#1C1B1B" stop-opacity="0"/>
<stop offset="0.505208" stop-color="#1C1B1B"/>
<stop offset="1" stop-color="#1C1B1B" stop-opacity="0"/>
</linearGradient>
<linearGradient id="paint2_linear_1293_254" x1="201.5" y1="8" x2="201.5" y2="687" gradientUnits="userSpaceOnUse">
<stop stop-color="#1C1B1B" stop-opacity="0"/>
<stop offset="0.505208" stop-color="#1C1B1B"/>
<stop offset="1" stop-color="#1C1B1B" stop-opacity="0"/>
</linearGradient>
<linearGradient id="paint3_linear_1293_254" x1="302.5" y1="8" x2="302.5" y2="687" gradientUnits="userSpaceOnUse">
<stop stop-color="#1C1B1B" stop-opacity="0"/>
<stop offset="0.505208" stop-color="#1C1B1B"/>
<stop offset="1" stop-color="#1C1B1B" stop-opacity="0"/>
</linearGradient>
<linearGradient id="paint4_linear_1293_254" x1="403.5" y1="8" x2="403.5" y2="687" gradientUnits="userSpaceOnUse">
<stop stop-color="#1C1B1B" stop-opacity="0"/>
<stop offset="0.505208" stop-color="#1C1B1B"/>
<stop offset="1" stop-color="#1C1B1B" stop-opacity="0"/>
</linearGradient>
<linearGradient id="paint5_linear_1293_254" x1="504.5" y1="8" x2="504.5" y2="687" gradientUnits="userSpaceOnUse">
<stop stop-color="#1C1B1B" stop-opacity="0"/>
<stop offset="0.505208" stop-color="#1C1B1B"/>
<stop offset="1" stop-color="#1C1B1B" stop-opacity="0"/>
</linearGradient>
<linearGradient id="paint6_linear_1293_254" x1="605.5" y1="8" x2="605.5" y2="687" gradientUnits="userSpaceOnUse">
<stop stop-color="#1C1B1B" stop-opacity="0"/>
<stop offset="0.505208" stop-color="#1C1B1B"/>
<stop offset="1" stop-color="#1C1B1B" stop-opacity="0"/>
</linearGradient>
<linearGradient id="paint7_linear_1293_254" x1="15" y1="614.315" x2="694" y2="614.315" gradientUnits="userSpaceOnUse">
<stop stop-color="#1C1B1B" stop-opacity="0"/>
<stop offset="0.505208" stop-color="#1C1B1B"/>
<stop offset="1" stop-color="#1C1B1B" stop-opacity="0"/>
</linearGradient>
<linearGradient id="paint8_linear_1293_254" x1="17.7317" y1="513.352" x2="696.732" y2="513.352" gradientUnits="userSpaceOnUse">
<stop stop-color="#1C1B1B" stop-opacity="0"/>
<stop offset="0.505208" stop-color="#1C1B1B"/>
<stop offset="1" stop-color="#1C1B1B" stop-opacity="0"/>
</linearGradient>
<linearGradient id="paint9_linear_1293_254" x1="20.4635" y1="412.389" x2="699.464" y2="412.389" gradientUnits="userSpaceOnUse">
<stop stop-color="#1C1B1B" stop-opacity="0"/>
<stop offset="0.505208" stop-color="#1C1B1B"/>
<stop offset="1" stop-color="#1C1B1B" stop-opacity="0"/>
</linearGradient>
<linearGradient id="paint10_linear_1293_254" x1="23.1953" y1="311.426" x2="702.195" y2="311.426" gradientUnits="userSpaceOnUse">
<stop stop-color="#1C1B1B" stop-opacity="0"/>
<stop offset="0.505208" stop-color="#1C1B1B"/>
<stop offset="1" stop-color="#1C1B1B" stop-opacity="0"/>
</linearGradient>
<linearGradient id="paint11_linear_1293_254" x1="25.9271" y1="210.463" x2="704.927" y2="210.463" gradientUnits="userSpaceOnUse">
<stop stop-color="#1C1B1B" stop-opacity="0"/>
<stop offset="0.505208" stop-color="#1C1B1B"/>
<stop offset="1" stop-color="#1C1B1B" stop-opacity="0"/>
</linearGradient>
<linearGradient id="paint12_linear_1293_254" x1="28.6588" y1="109.5" x2="707.659" y2="109.5" gradientUnits="userSpaceOnUse">
<stop stop-color="#1C1B1B" stop-opacity="0"/>
<stop offset="0.505208" stop-color="#1C1B1B"/>
<stop offset="1" stop-color="#1C1B1B" stop-opacity="0"/>
</linearGradient>
<linearGradient id="paint13_linear_1293_254" x1="431" y1="131" x2="431" y2="257" gradientUnits="userSpaceOnUse">
<stop stop-color="#E83752"/>
<stop offset="1" stop-color="#E83752" stop-opacity="0"/>
</linearGradient>
<linearGradient id="paint14_linear_1293_254" x1="323.5" y1="183" x2="323.5" y2="491" gradientUnits="userSpaceOnUse">
<stop stop-color="#E83752"/>
<stop offset="1" stop-color="#E83752" stop-opacity="0"/>
</linearGradient>
<linearGradient id="paint15_linear_1293_254" x1="661.5" y1="170" x2="661.5" y2="324" gradientUnits="userSpaceOnUse">
<stop stop-color="#E83752"/>
<stop offset="1" stop-color="#E83752" stop-opacity="0"/>
</linearGradient>
<linearGradient id="paint16_linear_1293_254" x1="623" y1="314.254" x2="228.004" y2="312.35" gradientUnits="userSpaceOnUse">
<stop stop-color="#0A0909"/>
<stop offset="1" stop-color="#0A0909" stop-opacity="0"/>
</linearGradient>
<linearGradient id="paint17_linear_1293_254" x1="579.423" y1="460.214" x2="273.043" y2="456.52" gradientUnits="userSpaceOnUse">
<stop stop-color="#0A0909"/>
<stop offset="1" stop-color="#0A0909" stop-opacity="0"/>
</linearGradient>
<linearGradient id="paint18_linear_1293_254" x1="284" y1="241" x2="251.972" y2="272.972" gradientUnits="userSpaceOnUse">
<stop stop-color="#FA5770"/>
<stop offset="1" stop-color="#E83752" stop-opacity="0"/>
</linearGradient>
<linearGradient id="paint19_linear_1293_254" x1="694" y1="495" x2="661.972" y2="526.972" gradientUnits="userSpaceOnUse">
<stop stop-color="#FA5770"/>
<stop offset="1" stop-color="#E83752" stop-opacity="0"/>
</linearGradient>
<linearGradient id="paint20_linear_1293_254" x1="426" y1="526" x2="393.972" y2="557.972" gradientUnits="userSpaceOnUse">
<stop stop-color="#FA5770"/>
<stop offset="1" stop-color="#E83752" stop-opacity="0"/>
</linearGradient>
<linearGradient id="paint21_linear_1293_254" x1="639" y1="205" x2="606.972" y2="236.972" gradientUnits="userSpaceOnUse">
<stop stop-color="#FA5770"/>
<stop offset="1" stop-color="#E83752" stop-opacity="0"/>
</linearGradient>
<clipPath id="clip0_1293_254">
<rect width="732" height="670" fill="white"/>
</clipPath>
</defs>
</svg>
