<svg width="1920" height="1080" viewBox="0 0 1920 1080" fill="none" xmlns="http://www.w3.org/2000/svg">
<g clip-path="url(#clip0_1420_239)">
<g opacity="0.3" filter="url(#filter0_f_1420_239)">
<ellipse cx="1652.5" cy="89.5" rx="400.5" ry="213.5" fill="url(#paint0_linear_1420_239)"/>
</g>
<g opacity="0.3" filter="url(#filter1_f_1420_239)">
<ellipse cx="64.5" cy="192" rx="530.5" ry="411" fill="url(#paint1_linear_1420_239)"/>
</g>
<text opacity="0.3" fill="url(#paint2_linear_1420_239)" xml:space="preserve" style="white-space: pre" font-family="Raleway" font-size="14" font-weight="bold" letter-spacing="0em"><tspan x="609.297" y="-60.058">A&#10;</tspan><tspan x="609.775" y="-46.058">8&#10;</tspan><tspan x="610.097" y="-32.058">3&#10;</tspan><tspan x="610.124" y="-18.058">5&#10;</tspan><tspan x="609.201" y="-4.058">C&#10;</tspan><tspan x="609.796" y="9.942">E&#10;</tspan><tspan x="610.001" y="23.942">4&#10;</tspan><tspan x="609.297" y="37.942">A&#10;</tspan><tspan x="609.748" y="51.942">6&#10;</tspan><tspan x="609.242" y="65.942">B&#10;</tspan><tspan x="609.201" y="79.942">C&#10;</tspan><tspan x="609.775" y="93.942">8&#10;</tspan><tspan x="610.541" y="107.942">1&#10;</tspan><tspan x="609.7" y="121.942">0&#10;</tspan><tspan x="609.201" y="135.942">C&#10;</tspan><tspan x="609.297" y="149.942">A&#10;</tspan><tspan x="610.001" y="163.942">4&#10;</tspan><tspan x="609.748" y="177.942">6&#10;</tspan><tspan x="609.98" y="191.942">F&#10;</tspan><tspan x="609.297" y="205.942">A&#10;</tspan><tspan x="609.775" y="219.942">8&#10;</tspan><tspan x="610.097" y="233.942">3&#10;</tspan><tspan x="610.124" y="247.942">5&#10;</tspan><tspan x="609.201" y="261.942">C&#10;</tspan><tspan x="609.796" y="275.942">E&#10;</tspan><tspan x="610.001" y="289.942">4&#10;</tspan><tspan x="609.297" y="303.942">A&#10;</tspan><tspan x="609.748" y="317.942">6&#10;</tspan><tspan x="609.242" y="331.942">B&#10;</tspan><tspan x="609.201" y="345.942">C&#10;</tspan><tspan x="609.775" y="359.942">8&#10;</tspan><tspan x="610.541" y="373.942">1&#10;</tspan><tspan x="609.7" y="387.942">0&#10;</tspan><tspan x="609.201" y="401.942">C&#10;</tspan><tspan x="609.297" y="415.942">A&#10;</tspan><tspan x="610.001" y="429.942">4&#10;</tspan><tspan x="609.748" y="443.942">6&#10;</tspan><tspan x="609.98" y="457.942">F&#10;</tspan><tspan x="609.297" y="471.942">A&#10;</tspan><tspan x="609.775" y="485.942">8&#10;</tspan><tspan x="610.097" y="499.942">3&#10;</tspan><tspan x="610.124" y="513.942">5&#10;</tspan><tspan x="609.201" y="527.942">C&#10;</tspan><tspan x="609.796" y="541.942">E&#10;</tspan><tspan x="610.001" y="555.942">4&#10;</tspan><tspan x="609.297" y="569.942">A&#10;</tspan><tspan x="609.748" y="583.942">6&#10;</tspan><tspan x="609.242" y="597.942">B&#10;</tspan><tspan x="609.201" y="611.942">C&#10;</tspan><tspan x="609.775" y="625.942">8&#10;</tspan><tspan x="610.541" y="639.942">1&#10;</tspan><tspan x="609.7" y="653.942">0&#10;</tspan><tspan x="609.201" y="667.942">C&#10;</tspan><tspan x="609.297" y="681.942">A&#10;</tspan><tspan x="610.001" y="695.942">4&#10;</tspan><tspan x="609.748" y="709.942">6&#10;</tspan><tspan x="609.98" y="723.942">F&#10;</tspan></text>
<text opacity="0.3" fill="url(#paint3_linear_1420_239)" xml:space="preserve" style="white-space: pre" font-family="Raleway" font-size="14" font-weight="bold" letter-spacing="0em"><tspan x="1382.3" y="-85.058">A&#10;</tspan><tspan x="1382.78" y="-71.058">8&#10;</tspan><tspan x="1383.1" y="-57.058">3&#10;</tspan><tspan x="1383.12" y="-43.058">5&#10;</tspan><tspan x="1382.2" y="-29.058">C&#10;</tspan><tspan x="1382.8" y="-15.058">E&#10;</tspan><tspan x="1383" y="-1.058">4&#10;</tspan><tspan x="1382.3" y="12.942">A&#10;</tspan><tspan x="1382.75" y="26.942">6&#10;</tspan><tspan x="1382.24" y="40.942">B&#10;</tspan><tspan x="1382.2" y="54.942">C&#10;</tspan><tspan x="1382.78" y="68.942">8&#10;</tspan><tspan x="1383.54" y="82.942">1&#10;</tspan><tspan x="1382.7" y="96.942">0&#10;</tspan><tspan x="1382.2" y="110.942">C&#10;</tspan><tspan x="1382.3" y="124.942">A&#10;</tspan><tspan x="1383" y="138.942">4&#10;</tspan><tspan x="1382.75" y="152.942">6&#10;</tspan><tspan x="1382.98" y="166.942">F&#10;</tspan><tspan x="1382.3" y="180.942">A&#10;</tspan><tspan x="1382.78" y="194.942">8&#10;</tspan><tspan x="1383.1" y="208.942">3&#10;</tspan><tspan x="1383.12" y="222.942">5&#10;</tspan><tspan x="1382.2" y="236.942">C&#10;</tspan><tspan x="1382.8" y="250.942">E&#10;</tspan><tspan x="1383" y="264.942">4&#10;</tspan><tspan x="1382.3" y="278.942">A&#10;</tspan><tspan x="1382.75" y="292.942">6&#10;</tspan><tspan x="1382.24" y="306.942">B&#10;</tspan><tspan x="1382.2" y="320.942">C&#10;</tspan><tspan x="1382.78" y="334.942">8&#10;</tspan><tspan x="1383.54" y="348.942">1&#10;</tspan><tspan x="1382.7" y="362.942">0&#10;</tspan><tspan x="1382.2" y="376.942">C&#10;</tspan><tspan x="1382.3" y="390.942">A&#10;</tspan><tspan x="1383" y="404.942">4&#10;</tspan><tspan x="1382.75" y="418.942">6&#10;</tspan><tspan x="1382.98" y="432.942">F&#10;</tspan><tspan x="1382.3" y="446.942">A&#10;</tspan><tspan x="1382.78" y="460.942">8&#10;</tspan><tspan x="1383.1" y="474.942">3&#10;</tspan><tspan x="1383.12" y="488.942">5&#10;</tspan><tspan x="1382.2" y="502.942">C&#10;</tspan><tspan x="1382.8" y="516.942">E&#10;</tspan><tspan x="1383" y="530.942">4&#10;</tspan><tspan x="1382.3" y="544.942">A&#10;</tspan><tspan x="1382.75" y="558.942">6&#10;</tspan><tspan x="1382.24" y="572.942">B&#10;</tspan><tspan x="1382.2" y="586.942">C&#10;</tspan><tspan x="1382.78" y="600.942">8&#10;</tspan><tspan x="1383.54" y="614.942">1&#10;</tspan><tspan x="1382.7" y="628.942">0&#10;</tspan><tspan x="1382.2" y="642.942">C&#10;</tspan><tspan x="1382.3" y="656.942">A&#10;</tspan><tspan x="1383" y="670.942">4&#10;</tspan><tspan x="1382.75" y="684.942">6&#10;</tspan><tspan x="1382.98" y="698.942">F&#10;</tspan></text>
<text opacity="0.3" fill="url(#paint4_linear_1420_239)" xml:space="preserve" style="white-space: pre" font-family="Raleway" font-size="14" font-weight="bold" letter-spacing="0em"><tspan x="889.297" y="-85.058">A&#10;</tspan><tspan x="889.775" y="-71.058">8&#10;</tspan><tspan x="890.097" y="-57.058">3&#10;</tspan><tspan x="890.124" y="-43.058">5&#10;</tspan><tspan x="889.201" y="-29.058">C&#10;</tspan><tspan x="889.796" y="-15.058">E&#10;</tspan><tspan x="890.001" y="-1.058">4&#10;</tspan><tspan x="889.297" y="12.942">A&#10;</tspan><tspan x="889.748" y="26.942">6&#10;</tspan><tspan x="889.242" y="40.942">B&#10;</tspan><tspan x="889.201" y="54.942">C&#10;</tspan><tspan x="889.775" y="68.942">8&#10;</tspan><tspan x="890.541" y="82.942">1&#10;</tspan><tspan x="889.7" y="96.942">0&#10;</tspan><tspan x="889.201" y="110.942">C&#10;</tspan><tspan x="889.297" y="124.942">A&#10;</tspan><tspan x="890.001" y="138.942">4&#10;</tspan><tspan x="889.748" y="152.942">6&#10;</tspan><tspan x="889.98" y="166.942">F&#10;</tspan><tspan x="889.297" y="180.942">A&#10;</tspan><tspan x="889.775" y="194.942">8&#10;</tspan><tspan x="890.097" y="208.942">3&#10;</tspan><tspan x="890.124" y="222.942">5&#10;</tspan><tspan x="889.201" y="236.942">C&#10;</tspan><tspan x="889.796" y="250.942">E&#10;</tspan><tspan x="890.001" y="264.942">4&#10;</tspan><tspan x="889.297" y="278.942">A&#10;</tspan><tspan x="889.748" y="292.942">6&#10;</tspan><tspan x="889.242" y="306.942">B&#10;</tspan><tspan x="889.201" y="320.942">C&#10;</tspan><tspan x="889.775" y="334.942">8&#10;</tspan><tspan x="890.541" y="348.942">1&#10;</tspan><tspan x="889.7" y="362.942">0&#10;</tspan><tspan x="889.201" y="376.942">C&#10;</tspan><tspan x="889.297" y="390.942">A&#10;</tspan><tspan x="890.001" y="404.942">4&#10;</tspan><tspan x="889.748" y="418.942">6&#10;</tspan><tspan x="889.98" y="432.942">F&#10;</tspan><tspan x="889.297" y="446.942">A&#10;</tspan><tspan x="889.775" y="460.942">8&#10;</tspan><tspan x="890.097" y="474.942">3&#10;</tspan><tspan x="890.124" y="488.942">5&#10;</tspan><tspan x="889.201" y="502.942">C&#10;</tspan><tspan x="889.796" y="516.942">E&#10;</tspan><tspan x="890.001" y="530.942">4&#10;</tspan><tspan x="889.297" y="544.942">A&#10;</tspan><tspan x="889.748" y="558.942">6&#10;</tspan><tspan x="889.242" y="572.942">B&#10;</tspan><tspan x="889.201" y="586.942">C&#10;</tspan><tspan x="889.775" y="600.942">8&#10;</tspan><tspan x="890.541" y="614.942">1&#10;</tspan><tspan x="889.7" y="628.942">0&#10;</tspan><tspan x="889.201" y="642.942">C&#10;</tspan><tspan x="889.297" y="656.942">A&#10;</tspan><tspan x="890.001" y="670.942">4&#10;</tspan><tspan x="889.748" y="684.942">6&#10;</tspan><tspan x="889.98" y="698.942">F&#10;</tspan></text>
<text fill="url(#paint5_linear_1420_239)" xml:space="preserve" style="white-space: pre" font-family="Raleway" font-size="14" font-weight="bold" letter-spacing="0em"><tspan x="309.041" y="-57.058">1&#10;</tspan><tspan x="308.2" y="-43.058">0&#10;</tspan><tspan x="308.2" y="-29.058">0&#10;</tspan><tspan x="309.041" y="-15.058">1&#10;</tspan><tspan x="309.041" y="-1.058">1&#10;</tspan><tspan x="309.041" y="12.942">1&#10;</tspan><tspan x="308.2" y="26.942">0&#10;</tspan><tspan x="309.041" y="40.942">1&#10;</tspan><tspan x="308.2" y="54.942">0&#10;</tspan><tspan x="309.041" y="68.942">1&#10;</tspan><tspan x="308.2" y="82.942">0&#10;</tspan><tspan x="309.041" y="96.942">1&#10;</tspan><tspan x="309.041" y="110.942">1&#10;</tspan><tspan x="309.041" y="124.942">1&#10;</tspan><tspan x="309.041" y="138.942">1&#10;</tspan><tspan x="308.2" y="152.942">0&#10;</tspan><tspan x="309.041" y="166.942">1&#10;</tspan><tspan x="309.041" y="180.942">1&#10;</tspan><tspan x="309.041" y="194.942">1&#10;</tspan><tspan x="308.2" y="208.942">0&#10;</tspan><tspan x="309.041" y="222.942">1&#10;</tspan><tspan x="308.2" y="236.942">0&#10;</tspan><tspan x="309.041" y="250.942">1&#10;</tspan><tspan x="308.2" y="264.942">0&#10;</tspan></text>
<text fill="url(#paint6_linear_1420_239)" xml:space="preserve" style="white-space: pre" font-family="Raleway" font-size="14" font-weight="bold" letter-spacing="0em"><tspan x="547.297" y="-13.058">A&#10;</tspan><tspan x="547.775" y="0.942001">8&#10;</tspan><tspan x="548.097" y="14.942">3&#10;</tspan><tspan x="548.124" y="28.942">5&#10;</tspan><tspan x="547.201" y="42.942">C&#10;</tspan><tspan x="547.796" y="56.942">E&#10;</tspan><tspan x="548.001" y="70.942">4&#10;</tspan><tspan x="547.297" y="84.942">A&#10;</tspan><tspan x="547.748" y="98.942">6&#10;</tspan><tspan x="547.242" y="112.942">B&#10;</tspan><tspan x="547.201" y="126.942">C&#10;</tspan><tspan x="547.775" y="140.942">8&#10;</tspan><tspan x="548.541" y="154.942">1&#10;</tspan><tspan x="547.7" y="168.942">0&#10;</tspan><tspan x="547.201" y="182.942">C&#10;</tspan><tspan x="547.297" y="196.942">A&#10;</tspan><tspan x="548.001" y="210.942">4&#10;</tspan><tspan x="547.748" y="224.942">6&#10;</tspan><tspan x="547.98" y="238.942">F&#10;</tspan></text>
<text fill="url(#paint7_linear_1420_239)" xml:space="preserve" style="white-space: pre" font-family="Raleway" font-size="14" font-weight="bold" letter-spacing="0em"><tspan x="651.775" y="99.942">8&#10;</tspan><tspan x="652.541" y="113.942">1&#10;</tspan><tspan x="651.7" y="127.942">0&#10;</tspan><tspan x="651.201" y="141.942">C&#10;</tspan><tspan x="651.297" y="155.942">A&#10;</tspan><tspan x="652.001" y="169.942">4&#10;</tspan><tspan x="651.748" y="183.942">6&#10;</tspan><tspan x="651.98" y="197.942">F&#10;</tspan></text>
<text fill="url(#paint8_linear_1420_239)" xml:space="preserve" style="white-space: pre" font-family="Raleway" font-size="14" font-weight="bold" letter-spacing="0em"><tspan x="735.297" y="33.942">A&#10;</tspan><tspan x="735.775" y="47.942">8&#10;</tspan><tspan x="736.097" y="61.942">3&#10;</tspan><tspan x="736.124" y="75.942">5&#10;</tspan><tspan x="735.201" y="89.942">C&#10;</tspan><tspan x="735.796" y="103.942">E&#10;</tspan><tspan x="736.001" y="117.942">4&#10;</tspan><tspan x="735.297" y="131.942">A&#10;</tspan><tspan x="735.748" y="145.942">6&#10;</tspan><tspan x="735.242" y="159.942">B</tspan></text>
<text fill="url(#paint9_linear_1420_239)" xml:space="preserve" style="white-space: pre" font-family="Raleway" font-size="14" font-weight="bold" letter-spacing="0em"><tspan x="431.041" y="60.942">1&#10;</tspan><tspan x="431.041" y="74.942">1&#10;</tspan><tspan x="430.2" y="88.942">0&#10;</tspan><tspan x="431.041" y="102.942">1&#10;</tspan><tspan x="431.041" y="116.942">1&#10;</tspan><tspan x="431.041" y="130.942">1&#10;</tspan><tspan x="430.2" y="144.942">0&#10;</tspan><tspan x="431.041" y="158.942">1&#10;</tspan><tspan x="430.2" y="172.942">0&#10;</tspan><tspan x="431.041" y="186.942">1&#10;</tspan><tspan x="430.2" y="200.942">0&#10;</tspan><tspan x="431.041" y="214.942">1&#10;</tspan><tspan x="431.041" y="228.942">1&#10;</tspan><tspan x="430.2" y="242.942">0&#10;</tspan><tspan x="431.041" y="256.942">1&#10;</tspan><tspan x="431.041" y="270.942">1&#10;</tspan><tspan x="431.041" y="284.942">1&#10;</tspan><tspan x="430.2" y="298.942">0&#10;</tspan><tspan x="431.041" y="312.942">1&#10;</tspan><tspan x="430.2" y="326.942">0&#10;</tspan><tspan x="431.041" y="340.942">1&#10;</tspan><tspan x="430.2" y="354.942">0</tspan></text>
<text fill="url(#paint10_linear_1420_239)" xml:space="preserve" style="white-space: pre" font-family="Raleway" font-size="14" font-weight="bold" letter-spacing="0em"><tspan x="375.041" y="11.942">1&#10;</tspan><tspan x="375.041" y="25.942">1&#10;</tspan><tspan x="374.2" y="39.942">0&#10;</tspan><tspan x="375.041" y="53.942">1&#10;</tspan><tspan x="375.041" y="67.942">1&#10;</tspan><tspan x="375.041" y="81.942">1&#10;</tspan><tspan x="374.2" y="95.942">0&#10;</tspan><tspan x="375.041" y="109.942">1&#10;</tspan><tspan x="374.2" y="123.942">0&#10;</tspan><tspan x="375.041" y="137.942">1&#10;</tspan><tspan x="374.2" y="151.942">0</tspan></text>
<text fill="url(#paint11_linear_1420_239)" xml:space="preserve" style="white-space: pre" font-family="Raleway" font-size="14" font-weight="bold" letter-spacing="0em"><tspan x="827.041" y="4.942">1&#10;</tspan><tspan x="826.2" y="18.942">0&#10;</tspan><tspan x="826.2" y="32.942">0&#10;</tspan><tspan x="827.041" y="46.942">1&#10;</tspan><tspan x="827.041" y="60.942">1&#10;</tspan><tspan x="827.041" y="74.942">1&#10;</tspan><tspan x="826.2" y="88.942">0&#10;</tspan><tspan x="827.041" y="102.942">1&#10;</tspan><tspan x="826.2" y="116.942">0&#10;</tspan><tspan x="827.041" y="130.942">1&#10;</tspan><tspan x="826.2" y="144.942">0&#10;</tspan><tspan x="827.041" y="158.942">1&#10;</tspan><tspan x="827.041" y="172.942">1&#10;</tspan><tspan x="827.041" y="186.942">1&#10;</tspan><tspan x="827.041" y="200.942">1&#10;</tspan><tspan x="826.2" y="214.942">0&#10;</tspan><tspan x="827.041" y="228.942">1&#10;</tspan><tspan x="827.041" y="242.942">1&#10;</tspan><tspan x="827.041" y="256.942">1&#10;</tspan><tspan x="826.2" y="270.942">0&#10;</tspan><tspan x="827.041" y="284.942">1&#10;</tspan><tspan x="826.2" y="298.942">0&#10;</tspan><tspan x="827.041" y="312.942">1&#10;</tspan><tspan x="826.2" y="326.942">0&#10;</tspan></text>
<text fill="url(#paint12_linear_1420_239)" xml:space="preserve" style="white-space: pre" font-family="Raleway" font-size="14" font-weight="bold" letter-spacing="0em"><tspan x="1004.3" y="21.942">A&#10;</tspan><tspan x="1004.78" y="35.942">8&#10;</tspan><tspan x="1005.1" y="49.942">3&#10;</tspan><tspan x="1005.12" y="63.942">5&#10;</tspan><tspan x="1004.2" y="77.942">C&#10;</tspan><tspan x="1004.8" y="91.942">E&#10;</tspan><tspan x="1005" y="105.942">4&#10;</tspan><tspan x="1004.3" y="119.942">A&#10;</tspan><tspan x="1004.75" y="133.942">6&#10;</tspan><tspan x="1004.24" y="147.942">B&#10;</tspan><tspan x="1004.2" y="161.942">C&#10;</tspan><tspan x="1004.78" y="175.942">8&#10;</tspan><tspan x="1005.54" y="189.942">1&#10;</tspan><tspan x="1004.7" y="203.942">0&#10;</tspan><tspan x="1004.2" y="217.942">C&#10;</tspan><tspan x="1004.3" y="231.942">A&#10;</tspan><tspan x="1005" y="245.942">4&#10;</tspan><tspan x="1004.75" y="259.942">6&#10;</tspan><tspan x="1004.98" y="273.942">F&#10;</tspan></text>
<text fill="url(#paint13_linear_1420_239)" xml:space="preserve" style="white-space: pre" font-family="Raleway" font-size="14" font-weight="bold" letter-spacing="0em"><tspan x="1614.3" y="-18.058">A&#10;</tspan><tspan x="1614.78" y="-4.058">8&#10;</tspan><tspan x="1615.1" y="9.942">3&#10;</tspan><tspan x="1615.12" y="23.942">5&#10;</tspan><tspan x="1614.2" y="37.942">C&#10;</tspan><tspan x="1614.8" y="51.942">E&#10;</tspan><tspan x="1615" y="65.942">4&#10;</tspan><tspan x="1614.3" y="79.942">A&#10;</tspan><tspan x="1614.75" y="93.942">6&#10;</tspan><tspan x="1614.24" y="107.942">B&#10;</tspan><tspan x="1614.2" y="121.942">C&#10;</tspan><tspan x="1614.78" y="135.942">8&#10;</tspan><tspan x="1615.54" y="149.942">1&#10;</tspan><tspan x="1614.7" y="163.942">0&#10;</tspan><tspan x="1614.2" y="177.942">C&#10;</tspan><tspan x="1614.3" y="191.942">A&#10;</tspan><tspan x="1615" y="205.942">4&#10;</tspan><tspan x="1614.75" y="219.942">6&#10;</tspan><tspan x="1614.98" y="233.942">F&#10;</tspan><tspan x="1614.3" y="247.942">A&#10;</tspan><tspan x="1614.78" y="261.942">8&#10;</tspan><tspan x="1615.1" y="275.942">3&#10;</tspan><tspan x="1615.12" y="289.942">5&#10;</tspan><tspan x="1614.2" y="303.942">C&#10;</tspan><tspan x="1614.8" y="317.942">E&#10;</tspan><tspan x="1615" y="331.942">4&#10;</tspan><tspan x="1614.3" y="345.942">A&#10;</tspan><tspan x="1614.75" y="359.942">6&#10;</tspan><tspan x="1614.24" y="373.942">B&#10;</tspan><tspan x="1614.2" y="387.942">C&#10;</tspan><tspan x="1614.78" y="401.942">8&#10;</tspan><tspan x="1615.54" y="415.942">1&#10;</tspan><tspan x="1614.7" y="429.942">0&#10;</tspan><tspan x="1614.2" y="443.942">C&#10;</tspan><tspan x="1614.3" y="457.942">A&#10;</tspan><tspan x="1615" y="471.942">4&#10;</tspan><tspan x="1614.75" y="485.942">6&#10;</tspan><tspan x="1614.98" y="499.942">F&#10;</tspan><tspan x="1614.3" y="513.942">A&#10;</tspan><tspan x="1614.78" y="527.942">8&#10;</tspan><tspan x="1615.1" y="541.942">3&#10;</tspan><tspan x="1615.12" y="555.942">5&#10;</tspan><tspan x="1614.2" y="569.942">C&#10;</tspan><tspan x="1614.8" y="583.942">E&#10;</tspan><tspan x="1615" y="597.942">4&#10;</tspan><tspan x="1614.3" y="611.942">A&#10;</tspan><tspan x="1614.75" y="625.942">6&#10;</tspan><tspan x="1614.24" y="639.942">B&#10;</tspan><tspan x="1614.2" y="653.942">C&#10;</tspan><tspan x="1614.78" y="667.942">8&#10;</tspan><tspan x="1615.54" y="681.942">1&#10;</tspan><tspan x="1614.7" y="695.942">0&#10;</tspan><tspan x="1614.2" y="709.942">C&#10;</tspan><tspan x="1614.3" y="723.942">A&#10;</tspan><tspan x="1615" y="737.942">4&#10;</tspan><tspan x="1614.75" y="751.942">6&#10;</tspan><tspan x="1614.98" y="765.942">F&#10;</tspan></text>
<text fill="url(#paint14_linear_1420_239)" xml:space="preserve" style="white-space: pre" font-family="Raleway" font-size="14" font-weight="bold" letter-spacing="0em"><tspan x="244.775" y="-4.058">8&#10;</tspan><tspan x="245.541" y="9.942">1&#10;</tspan><tspan x="244.7" y="23.942">0&#10;</tspan><tspan x="244.201" y="37.942">C&#10;</tspan><tspan x="244.297" y="51.942">A&#10;</tspan><tspan x="245.001" y="65.942">4&#10;</tspan><tspan x="244.748" y="79.942">6&#10;</tspan><tspan x="244.98" y="93.942">F&#10;</tspan><tspan x="244.297" y="107.942">A&#10;</tspan><tspan x="244.775" y="121.942">8&#10;</tspan><tspan x="245.097" y="135.942">3&#10;</tspan><tspan x="245.124" y="149.942">5&#10;</tspan><tspan x="244.201" y="163.942">C&#10;</tspan><tspan x="244.796" y="177.942">E&#10;</tspan><tspan x="245.001" y="191.942">4&#10;</tspan><tspan x="244.297" y="205.942">A&#10;</tspan><tspan x="244.748" y="219.942">6&#10;</tspan><tspan x="244.242" y="233.942">B&#10;</tspan><tspan x="244.201" y="247.942">C&#10;</tspan><tspan x="244.775" y="261.942">8&#10;</tspan><tspan x="245.541" y="275.942">1&#10;</tspan><tspan x="244.7" y="289.942">0&#10;</tspan><tspan x="244.201" y="303.942">C&#10;</tspan><tspan x="244.297" y="317.942">A&#10;</tspan><tspan x="245.001" y="331.942">4&#10;</tspan><tspan x="244.748" y="345.942">6&#10;</tspan><tspan x="244.98" y="359.942">F&#10;</tspan><tspan x="244.297" y="373.942">A</tspan></text>
<text fill="url(#paint15_linear_1420_239)" xml:space="preserve" style="white-space: pre" font-family="Raleway" font-size="14" font-weight="bold" letter-spacing="0em"><tspan x="1131.3" y="48.942">A&#10;</tspan><tspan x="1131.78" y="62.942">8&#10;</tspan><tspan x="1132.1" y="76.942">3&#10;</tspan><tspan x="1132.12" y="90.942">5&#10;</tspan><tspan x="1131.2" y="104.942">C&#10;</tspan><tspan x="1131.8" y="118.942">E&#10;</tspan><tspan x="1132" y="132.942">4&#10;</tspan><tspan x="1131.3" y="146.942">A&#10;</tspan><tspan x="1131.75" y="160.942">6&#10;</tspan><tspan x="1131.24" y="174.942">B</tspan></text>
<text fill="url(#paint16_linear_1420_239)" xml:space="preserve" style="white-space: pre" font-family="Raleway" font-size="14" font-weight="bold" letter-spacing="0em"><tspan x="920.041" y="33.942">1&#10;</tspan><tspan x="920.041" y="47.942">1&#10;</tspan><tspan x="919.2" y="61.942">0&#10;</tspan><tspan x="920.041" y="75.942">1&#10;</tspan><tspan x="920.041" y="89.942">1&#10;</tspan><tspan x="920.041" y="103.942">1&#10;</tspan><tspan x="919.2" y="117.942">0&#10;</tspan><tspan x="920.041" y="131.942">1&#10;</tspan><tspan x="919.2" y="145.942">0&#10;</tspan><tspan x="920.041" y="159.942">1&#10;</tspan><tspan x="919.2" y="173.942">0</tspan></text>
<text fill="url(#paint17_linear_1420_239)" xml:space="preserve" style="white-space: pre" font-family="Raleway" font-size="14" font-weight="bold" letter-spacing="0em"><tspan x="1047.04" y="-5.058">1&#10;</tspan><tspan x="1047.04" y="8.942">1&#10;</tspan><tspan x="1046.2" y="22.942">0&#10;</tspan><tspan x="1047.04" y="36.942">1&#10;</tspan><tspan x="1047.04" y="50.942">1&#10;</tspan><tspan x="1047.04" y="64.942">1&#10;</tspan><tspan x="1046.2" y="78.942">0&#10;</tspan><tspan x="1047.04" y="92.942">1&#10;</tspan><tspan x="1046.2" y="106.942">0&#10;</tspan><tspan x="1047.04" y="120.942">1&#10;</tspan><tspan x="1046.2" y="134.942">0</tspan></text>
<text fill="url(#paint18_linear_1420_239)" xml:space="preserve" style="white-space: pre" font-family="Raleway" font-size="14" font-weight="bold" letter-spacing="0em"><tspan x="1439.3" y="21.942">A&#10;</tspan><tspan x="1439.78" y="35.942">8&#10;</tspan><tspan x="1440.1" y="49.942">3&#10;</tspan><tspan x="1440.12" y="63.942">5&#10;</tspan><tspan x="1439.2" y="77.942">C&#10;</tspan><tspan x="1439.8" y="91.942">E&#10;</tspan><tspan x="1440" y="105.942">4&#10;</tspan><tspan x="1439.3" y="119.942">A&#10;</tspan><tspan x="1439.75" y="133.942">6&#10;</tspan><tspan x="1439.24" y="147.942">B&#10;</tspan><tspan x="1439.2" y="161.942">C&#10;</tspan><tspan x="1439.78" y="175.942">8&#10;</tspan><tspan x="1440.54" y="189.942">1&#10;</tspan><tspan x="1439.7" y="203.942">0&#10;</tspan><tspan x="1439.2" y="217.942">C&#10;</tspan><tspan x="1439.3" y="231.942">A&#10;</tspan><tspan x="1440" y="245.942">4&#10;</tspan><tspan x="1439.75" y="259.942">6&#10;</tspan><tspan x="1439.98" y="273.942">F&#10;</tspan></text>
<text fill="url(#paint19_linear_1420_239)" xml:space="preserve" style="white-space: pre" font-family="Raleway" font-size="14" font-weight="bold" letter-spacing="0em"><tspan x="1273.04" y="38.942">1&#10;</tspan><tspan x="1273.04" y="52.942">1&#10;</tspan><tspan x="1272.2" y="66.942">0&#10;</tspan><tspan x="1273.04" y="80.942">1&#10;</tspan><tspan x="1273.04" y="94.942">1&#10;</tspan><tspan x="1273.04" y="108.942">1&#10;</tspan><tspan x="1272.2" y="122.942">0&#10;</tspan><tspan x="1273.04" y="136.942">1&#10;</tspan><tspan x="1272.2" y="150.942">0&#10;</tspan><tspan x="1273.04" y="164.942">1&#10;</tspan><tspan x="1272.2" y="178.942">0</tspan></text>
<text fill="url(#paint20_linear_1420_239)" xml:space="preserve" style="white-space: pre" font-family="Raleway" font-size="14" font-weight="bold" letter-spacing="0em"><tspan x="1466.04" y="-6.058">1&#10;</tspan><tspan x="1466.04" y="7.942">1&#10;</tspan><tspan x="1465.2" y="21.942">0&#10;</tspan><tspan x="1466.04" y="35.942">1&#10;</tspan><tspan x="1466.04" y="49.942">1&#10;</tspan><tspan x="1466.04" y="63.942">1&#10;</tspan><tspan x="1465.2" y="77.942">0&#10;</tspan><tspan x="1466.04" y="91.942">1&#10;</tspan><tspan x="1465.2" y="105.942">0&#10;</tspan><tspan x="1466.04" y="119.942">1&#10;</tspan><tspan x="1465.2" y="133.942">0</tspan></text>
</g>
<defs>
<filter id="filter0_f_1420_239" x="794" y="-582" width="1717" height="1343" filterUnits="userSpaceOnUse" color-interpolation-filters="sRGB">
<feFlood flood-opacity="0" result="BackgroundImageFix"/>
<feBlend mode="normal" in="SourceGraphic" in2="BackgroundImageFix" result="shape"/>
<feGaussianBlur stdDeviation="229" result="effect1_foregroundBlur_1420_239"/>
</filter>
<filter id="filter1_f_1420_239" x="-924" y="-677" width="1977" height="1738" filterUnits="userSpaceOnUse" color-interpolation-filters="sRGB">
<feFlood flood-opacity="0" result="BackgroundImageFix"/>
<feBlend mode="normal" in="SourceGraphic" in2="BackgroundImageFix" result="shape"/>
<feGaussianBlur stdDeviation="229" result="effect1_foregroundBlur_1420_239"/>
</filter>
<linearGradient id="paint0_linear_1420_239" x1="2053" y1="89.5" x2="1626.46" y2="489.153" gradientUnits="userSpaceOnUse">
<stop stop-color="#FA5770"/>
<stop offset="1" stop-color="#E83752"/>
</linearGradient>
<linearGradient id="paint1_linear_1420_239" x1="595" y1="192" x2="-154.482" y2="675.195" gradientUnits="userSpaceOnUse">
<stop stop-color="#FA5770"/>
<stop offset="1" stop-color="#E83752"/>
</linearGradient>
<linearGradient id="paint2_linear_1420_239" x1="614" y1="-72" x2="614" y2="740" gradientUnits="userSpaceOnUse">
<stop stop-color="#E83752"/>
<stop offset="0.421875" stop-color="#E83752" stop-opacity="0"/>
<stop offset="0.614583" stop-color="#E83752" stop-opacity="0"/>
<stop offset="1" stop-color="#E83752"/>
</linearGradient>
<linearGradient id="paint3_linear_1420_239" x1="1387" y1="-97" x2="1387" y2="715" gradientUnits="userSpaceOnUse">
<stop stop-color="#E83752"/>
<stop offset="0.421875" stop-color="#E83752" stop-opacity="0"/>
<stop offset="0.614583" stop-color="#E83752" stop-opacity="0"/>
<stop offset="1" stop-color="#E83752"/>
</linearGradient>
<linearGradient id="paint4_linear_1420_239" x1="894" y1="-97" x2="894" y2="715" gradientUnits="userSpaceOnUse">
<stop stop-color="#E83752"/>
<stop offset="0.421875" stop-color="#E83752" stop-opacity="0"/>
<stop offset="0.614583" stop-color="#E83752" stop-opacity="0"/>
<stop offset="1" stop-color="#E83752"/>
</linearGradient>
<linearGradient id="paint5_linear_1420_239" x1="312.5" y1="-69" x2="312.5" y2="281" gradientUnits="userSpaceOnUse">
<stop stop-color="#E83752"/>
<stop offset="1" stop-color="#E83752" stop-opacity="0"/>
</linearGradient>
<linearGradient id="paint6_linear_1420_239" x1="552" y1="-25" x2="552" y2="255" gradientUnits="userSpaceOnUse">
<stop stop-color="#E83752"/>
<stop offset="1" stop-color="#E83752" stop-opacity="0"/>
</linearGradient>
<linearGradient id="paint7_linear_1420_239" x1="656" y1="88" x2="656" y2="214" gradientUnits="userSpaceOnUse">
<stop stop-color="#E83752"/>
<stop offset="1" stop-color="#E83752" stop-opacity="0"/>
</linearGradient>
<linearGradient id="paint8_linear_1420_239" x1="740" y1="22" x2="740" y2="162" gradientUnits="userSpaceOnUse">
<stop stop-color="#E83752"/>
<stop offset="1" stop-color="#E83752" stop-opacity="0"/>
</linearGradient>
<linearGradient id="paint9_linear_1420_239" x1="434.5" y1="49" x2="434.5" y2="357" gradientUnits="userSpaceOnUse">
<stop stop-color="#E83752"/>
<stop offset="1" stop-color="#E83752" stop-opacity="0"/>
</linearGradient>
<linearGradient id="paint10_linear_1420_239" x1="378.5" y1="0" x2="378.5" y2="154" gradientUnits="userSpaceOnUse">
<stop stop-color="#E83752"/>
<stop offset="1" stop-color="#E83752" stop-opacity="0"/>
</linearGradient>
<linearGradient id="paint11_linear_1420_239" x1="830.5" y1="-7" x2="830.5" y2="343" gradientUnits="userSpaceOnUse">
<stop stop-color="#E83752"/>
<stop offset="1" stop-color="#E83752" stop-opacity="0"/>
</linearGradient>
<linearGradient id="paint12_linear_1420_239" x1="1009" y1="10" x2="1009" y2="290" gradientUnits="userSpaceOnUse">
<stop stop-color="#E83752"/>
<stop offset="1" stop-color="#E83752" stop-opacity="0"/>
</linearGradient>
<linearGradient id="paint13_linear_1420_239" x1="1619" y1="-30" x2="1619" y2="782" gradientUnits="userSpaceOnUse">
<stop stop-color="#E83752" stop-opacity="0"/>
<stop offset="0.463542" stop-color="#E83752"/>
<stop offset="1" stop-color="#E83752" stop-opacity="0"/>
</linearGradient>
<linearGradient id="paint14_linear_1420_239" x1="249" y1="-16" x2="249" y2="376" gradientUnits="userSpaceOnUse">
<stop stop-color="#E83752"/>
<stop offset="1" stop-color="#E83752" stop-opacity="0"/>
</linearGradient>
<linearGradient id="paint15_linear_1420_239" x1="1136" y1="37" x2="1136" y2="177" gradientUnits="userSpaceOnUse">
<stop stop-color="#E83752"/>
<stop offset="1" stop-color="#E83752" stop-opacity="0"/>
</linearGradient>
<linearGradient id="paint16_linear_1420_239" x1="923.5" y1="22" x2="923.5" y2="176" gradientUnits="userSpaceOnUse">
<stop stop-color="#E83752"/>
<stop offset="1" stop-color="#E83752" stop-opacity="0"/>
</linearGradient>
<linearGradient id="paint17_linear_1420_239" x1="1050.5" y1="-17" x2="1050.5" y2="137" gradientUnits="userSpaceOnUse">
<stop stop-color="#E83752"/>
<stop offset="1" stop-color="#E83752" stop-opacity="0"/>
</linearGradient>
<linearGradient id="paint18_linear_1420_239" x1="1444" y1="10" x2="1444" y2="290" gradientUnits="userSpaceOnUse">
<stop stop-color="#E83752"/>
<stop offset="1" stop-color="#E83752" stop-opacity="0"/>
</linearGradient>
<linearGradient id="paint19_linear_1420_239" x1="1276.5" y1="27" x2="1276.5" y2="181" gradientUnits="userSpaceOnUse">
<stop stop-color="#E83752"/>
<stop offset="1" stop-color="#E83752" stop-opacity="0"/>
</linearGradient>
<linearGradient id="paint20_linear_1420_239" x1="1469.5" y1="-18" x2="1469.5" y2="136" gradientUnits="userSpaceOnUse">
<stop stop-color="#E83752"/>
<stop offset="1" stop-color="#E83752" stop-opacity="0"/>
</linearGradient>
<clipPath id="clip0_1420_239">
<rect width="1920" height="1080" fill="white"/>
</clipPath>
</defs>
</svg>
