<svg width="64" height="64" viewBox="0 0 64 64" fill="none" xmlns="http://www.w3.org/2000/svg">
<circle cx="32" cy="32" r="32" fill="#E83752"/>
<path d="M23.5725 26.6667H27.2061C27.2061 22.2727 28.2748 19.4848 32.0305 19.4848C35.7557 19.5758 36.7939 21.9091 36.855 26.6667H40.4275C40.4275 21.0909 38.2901 16 32.0305 16C26.5038 16 23.5725 19.7273 23.5725 26.6667Z" fill="white"/>
<path fill-rule="evenodd" clip-rule="evenodd" d="M20 31.3636C20 29.5758 21.5267 27.8182 23.5725 27.8182H40.4275C42.4733 27.8182 44 29.3333 44 31.3636V43.8485C44 45.5152 42.3206 47 40.4275 47H23.5725C21.4046 47 20 45.303 20 43.4545V31.3636ZM29.5878 36.2121C29.5878 37.2424 30.0458 37.9697 30.8092 38.3636V41.1515C30.8092 41.8788 31.3588 42.303 32 42.303C32.6412 42.303 33.2214 41.9091 33.2214 41.1515V38.3636C34.0458 37.7273 34.4122 37.2727 34.4122 36.2121C34.4122 34.697 33.374 33.8788 32 33.8788C30.7481 33.8788 29.5878 34.7879 29.5878 36.2121Z" fill="white"/>
</svg>
