<svg width="311" height="96" viewBox="0 0 311 96" fill="none" xmlns="http://www.w3.org/2000/svg">
<path fill-rule="evenodd" clip-rule="evenodd" d="M13 48.0232C59.4714 6.79446 92.8411 3.88156 142 48.0232C93.9609 91.7166 58.4635 89.588 13 48.0232ZM77.5 73C91.031 73 102 62.031 102 48.5C102 34.969 91.031 24 77.5 24C63.969 24 53 34.969 53 48.5C53 62.031 63.969 73 77.5 73Z" fill="url(#paint0_linear_1414_121)"/>
<path d="M74.0847 65L75.0763 44.8836C72.6525 43.6404 71.2203 41.9452 71 38.6678C71 34.5993 73.9746 32 77.6102 32C81.1356 32 84 34.9384 84 38.6678C84 41.7192 81.6864 44.6575 79.2627 44.8836L79.9237 55.0548H82.1271V58.4452H80.3644V60.0274H83.7797V65H74.0847Z" fill="white"/>
<path d="M232.224 39H216.082V51.2699C216.082 54.1972 218.901 57 221.719 57H232.224V52.5779H222.103C220.438 52.5779 220.054 51.7059 220.054 50.3356H229.854V45.8512H220.054V43.4844L232.288 43.609L232.224 39Z" fill="#F5F0F1"/>
<path d="M253.041 39H234.658V50.3356H248.557V52.5779H234.658V57H253.041V49.9619C253.041 47.5329 250.671 45.8512 248.814 45.8512H239.206V43.4844H253.041V39Z" fill="#F5F0F1"/>
<path d="M271.553 39H255.475V51.4567C255.475 54.0727 258.037 57 261.24 57H271.553V52.5779H261.24C259.959 52.5779 259.318 51.6436 259.318 50.3356H269.183V45.8512H259.318V43.4844H271.553V39Z" fill="#F5F0F1"/>
<path d="M278.278 39C275.844 39 273.859 41.2422 273.859 43.4844V51.1453C273.859 53.8858 276.421 57 279.687 57H290V52.5779H281.993C280.2 52.5779 278.534 51.3945 278.534 49.7751V43.4844H290V39H278.278Z" fill="#F5F0F1"/>
<path fill-rule="evenodd" clip-rule="evenodd" d="M172.206 39H160.228C158.37 39 156 40.7439 156 43.173V51.7059C156 53.699 158.562 57 161.957 57H174.511V52.5779H179.123V57H185.529C189.505 56.1201 191.335 54.9452 193.023 50.1488V46.2249C193.023 42.737 188.411 39 185.721 39H182.198C178.098 39 174.511 42.8616 174.511 46.0381V52.5779H163.879C161.893 52.5779 160.612 51.3322 160.612 49.3391V43.4844H172.206V39ZM179.123 52.5779V47.2837C179.123 44.917 181.621 43.609 183.799 43.609C186.233 43.609 188.411 45.4152 188.411 48.0934C188.411 50.4602 186.361 52.5779 184.504 52.5779H179.123Z" fill="#F5F0F1"/>
<path fill-rule="evenodd" clip-rule="evenodd" d="M195.265 39V57H203.912C209.869 57 213.712 51.3322 213.712 47.2837V43.4844H209.164V39H195.265ZM209.164 43.4844H199.877V52.5779H203.912C206.346 52.5779 209.164 50.1488 209.164 47.2837V43.4844Z" fill="#F5F0F1"/>
<defs>
<linearGradient id="paint0_linear_1414_121" x1="142" y1="48" x2="77.9347" y2="112.499" gradientUnits="userSpaceOnUse">
<stop stop-color="#FA5770"/>
<stop offset="1" stop-color="#E83752"/>
</linearGradient>
</defs>
</svg>
