<svg width="72" height="72" viewBox="0 0 72 72" fill="none" xmlns="http://www.w3.org/2000/svg">
<circle cx="36" cy="36" r="32" fill="url(#paint0_linear_1289_203)"/>
<path d="M34.5783 23.1714H24.7952C24.0538 23.1714 23.3429 23.4864 22.8187 24.0471C22.2945 24.6078 22 25.3683 22 26.1613V47.0907C22 47.8836 22.2945 48.6441 22.8187 49.2049C23.3429 49.7656 24.0538 50.0806 24.7952 50.0806H44.3614C45.1027 50.0806 45.8137 49.7656 46.3379 49.2049C46.8621 48.6441 47.1566 47.8836 47.1566 47.0907V36.626" fill="#FF8597"/>
<path d="M45.0602 20.9289C45.6162 20.3341 46.3703 20 47.1566 20C47.9429 20 48.697 20.3341 49.253 20.9289C49.809 21.5236 50.1213 22.3302 50.1213 23.1713C50.1213 24.0124 49.809 24.819 49.253 25.4137L35.9759 39.6159L30.3855 41.1109L31.7831 35.131L45.0602 20.9289Z" fill="white" stroke="white" stroke-width="2" stroke-linecap="round" stroke-linejoin="round"/>
<defs>
<linearGradient id="paint0_linear_1289_203" x1="68" y1="36" x2="16.7787" y2="61.584" gradientUnits="userSpaceOnUse">
<stop stop-color="#FA5770"/>
<stop offset="1" stop-color="#E83752"/>
</linearGradient>
</defs>
</svg>
