<svg width="72" height="72" viewBox="0 0 72 72" fill="none" xmlns="http://www.w3.org/2000/svg">
<circle cx="36" cy="36" r="32" fill="url(#paint0_linear_1289_189)"/>
<path fill-rule="evenodd" clip-rule="evenodd" d="M24 35.3636C24 33.5758 25.5267 31.8182 27.5725 31.8182H44.4275C46.4733 31.8182 48 33.3333 48 35.3636V47.8485C48 49.5151 46.3206 51 44.4275 51H27.5725C25.4046 51 24 49.303 24 47.4545V35.3636ZM33.5878 40.2121C33.5878 41.2424 34.0458 41.9697 34.8092 42.3636V45.1515C34.8092 45.8788 35.3588 46.303 36 46.303C36.6412 46.303 37.2214 45.9091 37.2214 45.1515V42.3636C38.0458 41.7273 38.4122 41.2727 38.4122 40.2121C38.4122 38.697 37.374 37.8788 36 37.8788C34.7481 37.8788 33.5878 38.7879 33.5878 40.2121Z" fill="white"/>
<path d="M28 31H31.4493C31.4493 26.8807 32.4638 24.267 36.029 24.267C39.5652 24.3523 40.5507 26.5398 40.6087 31H44C44 25.7727 41.971 21 36.029 21C30.7826 21 28 24.4943 28 31Z" fill="#FF96A6"/>
<defs>
<linearGradient id="paint0_linear_1289_189" x1="68" y1="36" x2="16.7787" y2="61.584" gradientUnits="userSpaceOnUse">
<stop stop-color="#FA5770"/>
<stop offset="1" stop-color="#E83752"/>
</linearGradient>
</defs>
</svg>
