<svg width="35" height="35" viewBox="0 0 35 35" fill="none" xmlns="http://www.w3.org/2000/svg">
<path fill-rule="evenodd" clip-rule="evenodd" d="M9.83301 0C4.40239 0 0 4.40239 0 9.83301V25.167C0 30.5976 4.40239 35 9.83301 35H25.167C30.5976 35 35 30.5976 35 25.167V9.83301C35 4.40239 30.5976 0 25.167 0H9.83301ZM9.69569 3.23195C6.12591 3.23195 3.23203 6.12581 3.23203 9.69559V25.3046C3.23203 28.8744 6.12591 31.7683 9.69568 31.7683H25.236C28.8057 31.7683 31.6996 28.8744 31.6996 25.3046V9.6956C31.6996 6.12582 28.8057 3.23195 25.236 3.23195H9.69569Z" fill="url(#paint0_linear_15_372)"/>
<path fill-rule="evenodd" clip-rule="evenodd" d="M17.5 26.5417C22.4559 26.5417 26.4734 22.5241 26.4734 17.5682C26.4734 12.6123 22.4559 8.59473 17.5 8.59473C12.5441 8.59473 8.52649 12.6123 8.52649 17.5682C8.52649 22.5241 12.5441 26.5417 17.5 26.5417ZM17.4997 23.3789C20.7467 23.3789 23.3789 20.7467 23.3789 17.4997C23.3789 14.2528 20.7467 11.6206 17.4997 11.6206C14.2527 11.6206 11.6205 14.2528 11.6205 17.4997C11.6205 20.7467 14.2527 23.3789 17.4997 23.3789Z" fill="url(#paint1_linear_15_372)"/>
<circle cx="26.9206" cy="8.14803" r="2.09725" fill="url(#paint2_linear_15_372)"/>
<defs>
<linearGradient id="paint0_linear_15_372" x1="35" y1="17.5" x2="6.98833" y2="31.4912" gradientUnits="userSpaceOnUse">
<stop stop-color="#FA5770"/>
<stop offset="1" stop-color="#E83752"/>
</linearGradient>
<linearGradient id="paint1_linear_15_372" x1="26.4734" y1="17.5682" x2="12.1099" y2="24.7425" gradientUnits="userSpaceOnUse">
<stop stop-color="#FA5770"/>
<stop offset="1" stop-color="#E83752"/>
</linearGradient>
<linearGradient id="paint2_linear_15_372" x1="29.0179" y1="8.14803" x2="25.6609" y2="9.82478" gradientUnits="userSpaceOnUse">
<stop stop-color="#FA5770"/>
<stop offset="1" stop-color="#E83752"/>
</linearGradient>
</defs>
</svg>
