<svg width="134" height="98" viewBox="0 0 134 98" fill="none" xmlns="http://www.w3.org/2000/svg">
<path d="M2 32.0232C48.4714 -9.20554 81.8411 -12.1184 131 32.0232C82.9609 75.7166 47.4635 73.588 2 32.0232Z" fill="url(#paint0_linear_90_164)"/>
<circle cx="66.5" cy="32.5" r="24.5" fill="#0A0909"/>
<path d="M63.0847 49L64.0763 28.8836C61.6525 27.6404 60.2203 25.9452 60 22.6678C60 18.5993 62.9746 16 66.6102 16C70.1356 16 73 18.9384 73 22.6678C73 25.7192 70.6864 28.6575 68.2627 28.8836L68.9237 39.0548H71.1271V42.4452H69.3644V44.0274H72.7797V49H63.0847Z" fill="url(#paint1_linear_90_164)"/>
<path d="M76.2237 80H60.0822V92.2699C60.0822 95.1972 62.9006 98 65.7189 98H76.2237V93.5779H66.1032C64.4379 93.5779 64.0535 92.7059 64.0535 91.3356H73.8537V86.8512H64.0535V84.4844L76.2878 84.609L76.2237 80Z" fill="#F5F0F1"/>
<path d="M97.0411 80H78.6577V91.3356H92.5574V93.5779H78.6577V98H97.0411V90.9619C97.0411 88.5329 94.6711 86.8512 92.8136 86.8512H83.2055V84.4844H97.0411V80Z" fill="#F5F0F1"/>
<path d="M115.553 80H99.4751V92.4567C99.4751 95.0727 102.037 98 105.24 98H115.553V93.5779H105.24C103.959 93.5779 103.318 92.6436 103.318 91.3356H113.183V86.8512H103.318V84.4844H115.553V80Z" fill="#F5F0F1"/>
<path d="M122.278 80C119.844 80 117.859 82.2422 117.859 84.4844V92.1453C117.859 94.8858 120.421 98 123.687 98H134V93.5779H125.993C124.2 93.5779 122.534 92.3945 122.534 90.7751V84.4844H134V80H122.278Z" fill="#F5F0F1"/>
<path fill-rule="evenodd" clip-rule="evenodd" d="M16.2055 80H4.22753C2.36998 80 0 81.7439 0 84.173V92.7059C0 94.699 2.56214 98 5.95698 98H18.5115V93.5779H23.1233V98H29.5287C33.5045 97.1201 35.3354 95.9452 37.0229 91.1488V87.2249C37.0229 83.737 32.4111 80 29.7208 80H26.1979C22.0985 80 18.5115 83.8616 18.5115 87.0381V93.5779H7.87859C5.89293 93.5779 4.61186 92.3322 4.61186 90.3391V84.4844H16.2055V80ZM23.1233 93.5779V88.2837C23.1233 85.917 25.6214 84.609 27.7992 84.609C30.2333 84.609 32.4111 86.4152 32.4111 89.0934C32.4111 91.4602 30.3614 93.5779 28.5038 93.5779H23.1233Z" fill="#F5F0F1"/>
<path fill-rule="evenodd" clip-rule="evenodd" d="M39.2648 80V98H47.912C53.869 98 57.7122 92.3322 57.7122 88.2837V84.4844H53.1644V80H39.2648ZM53.1644 84.4844H43.8767V93.5779H47.912C50.3461 93.5779 53.1644 91.1488 53.1644 88.2837V84.4844Z" fill="#F5F0F1"/>
<defs>
<linearGradient id="paint0_linear_90_164" x1="131" y1="32" x2="66.9347" y2="96.4985" gradientUnits="userSpaceOnUse">
<stop stop-color="#FA5770"/>
<stop offset="1" stop-color="#E83752"/>
</linearGradient>
<linearGradient id="paint1_linear_90_164" x1="73" y1="32.5" x2="60.4846" y2="34.9626" gradientUnits="userSpaceOnUse">
<stop stop-color="#FA5770"/>
<stop offset="1" stop-color="#E83752"/>
</linearGradient>
</defs>
</svg>
