<svg width="597" height="804" viewBox="0 0 597 804" fill="none" xmlns="http://www.w3.org/2000/svg">
<rect x="421.5" y="177.5" width="71" height="451" rx="1.5" stroke="url(#paint0_linear_1300_419)"/>
<rect x="317.5" y="177.5" width="71" height="451" rx="1.5" stroke="url(#paint1_linear_1300_419)"/>
<rect x="213.5" y="177.5" width="71" height="451" rx="1.5" stroke="url(#paint2_linear_1300_419)"/>
<rect x="109.5" y="177.5" width="71" height="451" rx="1.5" stroke="url(#paint3_linear_1300_419)"/>
<rect x="5.5" y="177.5" width="71" height="451" rx="1.5" stroke="url(#paint4_linear_1300_419)"/>
<rect x="525.5" y="177.5" width="71" height="451" rx="1.5" stroke="url(#paint5_linear_1300_419)"/>
<rect x="5.5" y="356.5" width="71" height="95" rx="1.5" stroke="url(#paint6_linear_1300_419)"/>
<rect x="109.5" y="356.5" width="71" height="95" rx="1.5" stroke="url(#paint7_linear_1300_419)"/>
<rect x="213.5" y="356.5" width="71" height="95" rx="1.5" stroke="url(#paint8_linear_1300_419)"/>
<rect x="317.5" y="356.5" width="71" height="95" rx="1.5" stroke="url(#paint9_linear_1300_419)"/>
<path d="M62.4878 377.88V429H52.6238V407.184H29.4398V429H19.5038V377.88H29.4398V398.544H52.6238V377.88H62.4878Z" fill="white"/>
<path d="M139.537 376.88H149.617L168.409 428H158.185L153.433 415.256H135.577L130.896 428H120.673L139.537 376.88ZM151.633 408.272L144.577 387.176L137.233 408.272H151.633Z" fill="white"/>
<path d="M226.552 403.08C226.552 399.96 227.104 396.888 228.208 393.864C229.36 390.84 231.016 388.104 233.176 385.656C235.336 383.208 237.976 381.264 241.096 379.824C244.216 378.336 247.768 377.592 251.752 377.592C256.408 377.592 260.464 378.624 263.92 380.688C267.376 382.752 269.944 385.44 271.624 388.752L263.992 394.008C263.128 392.088 262 390.576 260.608 389.472C259.216 388.368 257.704 387.576 256.072 387.096C254.488 386.616 252.952 386.376 251.464 386.376C248.968 386.376 246.784 386.88 244.912 387.888C243.088 388.896 241.552 390.216 240.304 391.848C239.056 393.48 238.12 395.304 237.496 397.32C236.92 399.336 236.632 401.352 236.632 403.368C236.632 406.392 237.256 409.224 238.504 411.864C239.752 414.456 241.504 416.568 243.76 418.2C246.016 419.832 248.632 420.648 251.608 420.648C253.144 420.648 254.728 420.384 256.36 419.856C258.04 419.328 259.576 418.488 260.968 417.336C262.36 416.184 263.44 414.696 264.208 412.872L272.344 417.552C271.288 420.096 269.632 422.256 267.376 424.032C265.12 425.76 262.576 427.104 259.744 428.064C256.912 428.976 254.104 429.432 251.32 429.432C247.672 429.432 244.336 428.688 241.312 427.2C238.336 425.664 235.744 423.648 233.536 421.152C231.328 418.608 229.6 415.776 228.352 412.656C227.152 409.488 226.552 406.296 226.552 403.08Z" fill="white"/>
<path d="M333.746 429V377.952H343.682V402.216L365.138 377.88H376.082L356.498 400.56L377.306 429H366.074L350.162 406.968L343.682 413.736V429H333.746Z" fill="white"/>
<path d="M476.203 419.288V428H440.707V376.88H475.555V385.592H450.643V397.904H472.171V405.968H450.643V419.288H476.203Z" fill="white"/>
<path d="M542.387 428V376.88H564.995C567.347 376.88 569.507 377.36 571.475 378.32C573.491 379.28 575.219 380.576 576.659 382.208C578.147 383.84 579.275 385.664 580.043 387.68C580.859 389.696 581.267 391.76 581.267 393.872C581.267 397.136 580.427 400.136 578.747 402.872C577.115 405.608 574.883 407.576 572.051 408.776L583.715 428H572.771L562.259 410.864H552.323V428H542.387ZM552.323 402.152H564.779C566.651 402.152 568.187 401.36 569.387 399.776C570.635 398.144 571.259 396.176 571.259 393.872C571.259 392.288 570.923 390.872 570.251 389.624C569.579 388.376 568.715 387.392 567.659 386.672C566.651 385.952 565.547 385.592 564.347 385.592H552.323V402.152Z" fill="white"/>
<path opacity="0.4" d="M13 318L38 253L64 318" stroke="url(#paint10_linear_1300_419)" stroke-width="8"/>
<path opacity="0.4" d="M13 555H57V532M57 532V483L13 511L57 532Z" stroke="url(#paint11_linear_1300_419)" stroke-width="8"/>
<path opacity="0.4" d="M171 552H119L145.5 487L171 552Z" stroke="url(#paint12_linear_1300_419)" stroke-width="8"/>
<path opacity="0.4" d="M279 485H234L279 520L234 553H279" stroke="url(#paint13_linear_1300_419)" stroke-width="8"/>
<path opacity="0.4" d="M329 484H378M344.5 520H378M378 555H329" stroke="url(#paint14_linear_1300_419)" stroke-width="8"/>
<path opacity="0.4" d="M118 248V323H170.5M118 248H170.5V323M118 248L170.5 323" stroke="url(#paint15_linear_1300_419)" stroke-width="8"/>
<path opacity="0.4" d="M233 612V644H255M279 612V644H255M255 606V644M255 644V684" stroke="url(#paint16_linear_1300_419)" stroke-width="8"/>
<path opacity="0.4" d="M223 322H267V299M267 299V250L223 278L267 299Z" stroke="url(#paint17_linear_1300_419)" stroke-width="8"/>
<path opacity="0.4" d="M163 609V645M163 681V645M163 645L127 681M163 645L127 609" stroke="url(#paint18_linear_1300_419)" stroke-width="8"/>
<path opacity="0.4" d="M9 678L34 613L60 678" stroke="url(#paint19_linear_1300_419)" stroke-width="8"/>
<path opacity="0.4" d="M327 608V683H379.5M327 608H379.5V683M327 608L379.5 683" stroke="url(#paint20_linear_1300_419)" stroke-width="8"/>
<path opacity="0.4" d="M374 252H329L374 287L329 320H374" stroke="url(#paint21_linear_1300_419)" stroke-width="8"/>
<path opacity="0.4" d="M14 131H63M29.5 167H63M63 202H14" stroke="url(#paint22_linear_1300_419)" stroke-width="8"/>
<path opacity="0.4" d="M121 133V165H143M167 133V165H143M143 127V165M143 165V205" stroke="url(#paint23_linear_1300_419)" stroke-width="8"/>
<path opacity="0.4" d="M271 199H219L245.5 134L271 199Z" stroke="url(#paint24_linear_1300_419)" stroke-width="8"/>
<path opacity="0.4" d="M329 202H373V179M373 179V130L329 158L373 179Z" stroke="url(#paint25_linear_1300_419)" stroke-width="8"/>
<rect x="421.5" y="356.5" width="71" height="95" rx="1.5" stroke="url(#paint26_linear_1300_419)"/>
<rect x="525.5" y="356.5" width="71" height="95" rx="1.5" stroke="url(#paint27_linear_1300_419)"/>
<path opacity="0.4" d="M431 482V557H483.5M431 482H483.5V557M431 482L483.5 557" stroke="url(#paint28_linear_1300_419)" stroke-width="8"/>
<path opacity="0.4" d="M428 250H477M443.5 286H477M477 321H428" stroke="url(#paint29_linear_1300_419)" stroke-width="8"/>
<path opacity="0.4" d="M538 486V518H560M584 486V518H560M560 480V518M560 518V558" stroke="url(#paint30_linear_1300_419)" stroke-width="8"/>
<path opacity="0.4" d="M9 80H53V57M53 57V8L9 36L53 57Z" stroke="url(#paint31_linear_1300_419)" stroke-width="8"/>
<path opacity="0.4" d="M167 77H115L141.5 12L167 77Z" stroke="url(#paint32_linear_1300_419)" stroke-width="8"/>
<path opacity="0.4" d="M275 10H230L275 45L230 78H275" stroke="url(#paint33_linear_1300_419)" stroke-width="8"/>
<path opacity="0.4" d="M325 9H374M340.5 45H374M374 80H325" stroke="url(#paint34_linear_1300_419)" stroke-width="8"/>
<path opacity="0.4" d="M427 7V82H479.5M427 7H479.5V82M427 7L479.5 82" stroke="url(#paint35_linear_1300_419)" stroke-width="8"/>
<path opacity="0.4" d="M534 11V43H556M580 11V43H556M556 5V43M556 43V83" stroke="url(#paint36_linear_1300_419)" stroke-width="8"/>
<path opacity="0.4" d="M484 611H439L484 646L439 679H484" stroke="url(#paint37_linear_1300_419)" stroke-width="8"/>
<path opacity="0.4" d="M590 318H538L564.5 253L590 318Z" stroke="url(#paint38_linear_1300_419)" stroke-width="8"/>
<path opacity="0.4" d="M538 681H582V658M582 658V609L538 637L582 658Z" stroke="url(#paint39_linear_1300_419)" stroke-width="8"/>
<path opacity="0.4" d="M467 130V166M467 202V166M467 166L431 202M467 166L431 130" stroke="url(#paint40_linear_1300_419)" stroke-width="8"/>
<path opacity="0.4" d="M536 133V165H558M582 133V165H558M558 127V165M558 165V205" stroke="url(#paint41_linear_1300_419)" stroke-width="8"/>
<path opacity="0.4" d="M22 729H71M37.5 765H71M71 800H22" stroke="url(#paint42_linear_1300_419)" stroke-width="8"/>
<path opacity="0.4" d="M129 731V763H151M175 731V763H151M151 725V763M151 763V803" stroke="url(#paint43_linear_1300_419)" stroke-width="8"/>
<path opacity="0.4" d="M279 797H227L253.5 732L279 797Z" stroke="url(#paint44_linear_1300_419)" stroke-width="8"/>
<path opacity="0.4" d="M337 800H381V777M381 777V728L337 756L381 777Z" stroke="url(#paint45_linear_1300_419)" stroke-width="8"/>
<path opacity="0.4" d="M475 728V764M475 800V764M475 764L439 800M475 764L439 728" stroke="url(#paint46_linear_1300_419)" stroke-width="8"/>
<path opacity="0.4" d="M544 731V763H566M590 731V763H566M566 725V763M566 763V803" stroke="url(#paint47_linear_1300_419)" stroke-width="8"/>
<path d="M172.272 310V292.96H179.496C180.28 292.96 181 293.12 181.656 293.44C182.312 293.76 182.88 294.192 183.36 294.736C183.856 295.28 184.24 295.888 184.512 296.56C184.784 297.232 184.92 297.92 184.92 298.624C184.92 299.584 184.696 300.496 184.248 301.36C183.8 302.224 183.184 302.928 182.4 303.472C181.616 304.016 180.688 304.288 179.616 304.288H175.584V310H172.272ZM175.584 301.384H179.424C179.824 301.384 180.184 301.272 180.504 301.048C180.824 300.824 181.08 300.504 181.272 300.088C181.464 299.656 181.56 299.168 181.56 298.624C181.56 298.032 181.448 297.528 181.224 297.112C181.016 296.696 180.736 296.384 180.384 296.176C180.048 295.968 179.68 295.864 179.28 295.864H175.584V301.384ZM185.885 306.28C185.885 305.464 186.109 304.752 186.557 304.144C187.021 303.52 187.661 303.04 188.477 302.704C189.293 302.368 190.229 302.2 191.285 302.2C191.813 302.2 192.349 302.24 192.893 302.32C193.437 302.4 193.909 302.528 194.309 302.704V302.032C194.309 301.232 194.069 300.616 193.589 300.184C193.125 299.752 192.429 299.536 191.501 299.536C190.813 299.536 190.157 299.656 189.533 299.896C188.909 300.136 188.253 300.488 187.565 300.952L186.533 298.84C187.365 298.296 188.213 297.888 189.077 297.616C189.957 297.344 190.877 297.208 191.837 297.208C193.629 297.208 195.021 297.656 196.013 298.552C197.021 299.448 197.525 300.728 197.525 302.392V306.4C197.525 306.736 197.581 306.976 197.693 307.12C197.821 307.264 198.021 307.352 198.293 307.384V310C198.005 310.048 197.741 310.088 197.501 310.12C197.277 310.152 197.085 310.168 196.925 310.168C196.285 310.168 195.797 310.024 195.461 309.736C195.141 309.448 194.941 309.096 194.861 308.68L194.789 308.032C194.245 308.736 193.565 309.28 192.749 309.664C191.933 310.048 191.101 310.24 190.253 310.24C189.421 310.24 188.669 310.072 187.997 309.736C187.341 309.384 186.821 308.912 186.437 308.32C186.069 307.712 185.885 307.032 185.885 306.28ZM193.709 306.928C193.885 306.736 194.029 306.544 194.141 306.352C194.253 306.16 194.309 305.984 194.309 305.824V304.552C193.925 304.392 193.509 304.272 193.061 304.192C192.613 304.096 192.189 304.048 191.789 304.048C190.957 304.048 190.269 304.232 189.725 304.6C189.197 304.952 188.933 305.424 188.933 306.016C188.933 306.336 189.021 306.64 189.197 306.928C189.373 307.216 189.629 307.448 189.965 307.624C190.301 307.8 190.701 307.888 191.165 307.888C191.645 307.888 192.117 307.8 192.581 307.624C193.045 307.432 193.421 307.2 193.709 306.928ZM208.018 300.208C207.042 300.208 206.17 300.4 205.402 300.784C204.634 301.152 204.082 301.688 203.746 302.392V310H200.53V297.424H203.482V300.112C203.93 299.248 204.498 298.568 205.186 298.072C205.874 297.576 206.602 297.304 207.37 297.256C207.546 297.256 207.682 297.256 207.778 297.256C207.874 297.256 207.954 297.264 208.018 297.28V300.208ZM217.348 309.352C217.076 309.464 216.748 309.592 216.364 309.736C215.98 309.88 215.564 309.992 215.116 310.072C214.684 310.168 214.244 310.216 213.796 310.216C213.204 310.216 212.66 310.112 212.164 309.904C211.668 309.696 211.268 309.368 210.964 308.92C210.676 308.456 210.532 307.856 210.532 307.12V299.896H208.876V297.424H210.532V293.344H213.748V297.424H216.388V299.896H213.748V306.04C213.764 306.472 213.884 306.784 214.108 306.976C214.332 307.168 214.612 307.264 214.948 307.264C215.284 307.264 215.612 307.208 215.932 307.096C216.252 306.984 216.508 306.888 216.7 306.808L217.348 309.352ZM219.023 310V297.424H222.239V310H219.023ZM219.023 295.672V292.48H222.239V295.672H219.023ZM230.996 310.24C229.972 310.24 229.052 310.072 228.236 309.736C227.42 309.384 226.724 308.904 226.148 308.296C225.572 307.672 225.124 306.968 224.804 306.184C224.5 305.4 224.348 304.576 224.348 303.712C224.348 302.528 224.612 301.448 225.14 300.472C225.684 299.48 226.452 298.688 227.444 298.096C228.436 297.504 229.612 297.208 230.972 297.208C232.332 297.208 233.5 297.504 234.476 298.096C235.452 298.688 236.18 299.464 236.66 300.424L233.516 301.384C233.244 300.92 232.884 300.568 232.436 300.328C231.988 300.072 231.492 299.944 230.948 299.944C230.34 299.944 229.78 300.104 229.268 300.424C228.772 300.728 228.38 301.168 228.092 301.744C227.804 302.304 227.66 302.96 227.66 303.712C227.66 304.448 227.804 305.104 228.092 305.68C228.396 306.24 228.796 306.688 229.292 307.024C229.788 307.344 230.34 307.504 230.948 307.504C231.332 307.504 231.692 307.44 232.028 307.312C232.38 307.184 232.692 307.008 232.964 306.784C233.236 306.56 233.436 306.304 233.564 306.016L236.708 306.976C236.42 307.6 235.996 308.16 235.436 308.656C234.892 309.152 234.244 309.544 233.492 309.832C232.756 310.104 231.924 310.24 230.996 310.24ZM238.687 310V297.424H241.903V310H238.687ZM238.687 295.672V292.48H241.903V295.672H238.687ZM252.34 310.24C251.364 310.24 250.5 310.024 249.748 309.592C249.012 309.144 248.436 308.544 248.02 307.792V315.112H244.804V297.424H247.612V299.584C248.092 298.848 248.7 298.272 249.436 297.856C250.172 297.424 251.012 297.208 251.956 297.208C252.804 297.208 253.58 297.376 254.284 297.712C255.004 298.048 255.628 298.52 256.156 299.128C256.684 299.72 257.092 300.408 257.38 301.192C257.684 301.96 257.836 302.792 257.836 303.688C257.836 304.904 257.596 306.008 257.116 307C256.652 307.992 256.004 308.784 255.172 309.376C254.356 309.952 253.412 310.24 252.34 310.24ZM251.26 307.504C251.756 307.504 252.204 307.4 252.604 307.192C253.004 306.984 253.348 306.704 253.636 306.352C253.94 305.984 254.164 305.576 254.308 305.128C254.468 304.664 254.548 304.184 254.548 303.688C254.548 303.16 254.46 302.672 254.284 302.224C254.124 301.776 253.884 301.384 253.564 301.048C253.244 300.696 252.868 300.424 252.436 300.232C252.02 300.04 251.564 299.944 251.068 299.944C250.764 299.944 250.452 300 250.132 300.112C249.828 300.208 249.532 300.352 249.244 300.544C248.956 300.736 248.7 300.96 248.476 301.216C248.268 301.472 248.116 301.752 248.02 302.056V305.008C248.212 305.472 248.468 305.896 248.788 306.28C249.124 306.664 249.508 306.968 249.94 307.192C250.372 307.4 250.812 307.504 251.26 307.504ZM265.847 310.24C264.839 310.24 263.927 310.072 263.111 309.736C262.295 309.384 261.599 308.912 261.023 308.32C260.447 307.712 259.999 307.024 259.679 306.256C259.375 305.472 259.223 304.648 259.223 303.784C259.223 302.584 259.487 301.488 260.015 300.496C260.559 299.504 261.327 298.712 262.319 298.12C263.327 297.512 264.511 297.208 265.871 297.208C267.247 297.208 268.423 297.512 269.399 298.12C270.375 298.712 271.119 299.504 271.631 300.496C272.159 301.472 272.423 302.528 272.423 303.664C272.423 303.856 272.415 304.056 272.399 304.264C272.383 304.456 272.367 304.616 272.351 304.744H262.631C262.695 305.384 262.879 305.944 263.183 306.424C263.503 306.904 263.903 307.272 264.383 307.528C264.879 307.768 265.407 307.888 265.967 307.888C266.607 307.888 267.207 307.736 267.767 307.432C268.343 307.112 268.735 306.696 268.943 306.184L271.703 306.952C271.399 307.592 270.959 308.16 270.383 308.656C269.823 309.152 269.159 309.544 268.391 309.832C267.623 310.104 266.775 310.24 265.847 310.24ZM262.559 302.704H269.135C269.071 302.064 268.887 301.512 268.583 301.048C268.295 300.568 267.911 300.2 267.431 299.944C266.951 299.672 266.415 299.536 265.823 299.536C265.247 299.536 264.719 299.672 264.239 299.944C263.775 300.2 263.391 300.568 263.087 301.048C262.799 301.512 262.623 302.064 262.559 302.704ZM285.98 310.24C284.972 310.24 284.06 310.072 283.244 309.736C282.428 309.384 281.732 308.912 281.156 308.32C280.58 307.712 280.132 307.024 279.812 306.256C279.508 305.472 279.356 304.648 279.356 303.784C279.356 302.584 279.62 301.488 280.148 300.496C280.692 299.504 281.46 298.712 282.452 298.12C283.46 297.512 284.644 297.208 286.004 297.208C287.38 297.208 288.556 297.512 289.532 298.12C290.508 298.712 291.252 299.504 291.764 300.496C292.292 301.472 292.556 302.528 292.556 303.664C292.556 303.856 292.548 304.056 292.532 304.264C292.516 304.456 292.5 304.616 292.484 304.744H282.764C282.828 305.384 283.012 305.944 283.316 306.424C283.636 306.904 284.036 307.272 284.516 307.528C285.012 307.768 285.54 307.888 286.1 307.888C286.74 307.888 287.34 307.736 287.9 307.432C288.476 307.112 288.868 306.696 289.076 306.184L291.836 306.952C291.532 307.592 291.092 308.16 290.516 308.656C289.956 309.152 289.292 309.544 288.524 309.832C287.756 310.104 286.908 310.24 285.98 310.24ZM282.692 302.704H289.268C289.204 302.064 289.02 301.512 288.716 301.048C288.428 300.568 288.044 300.2 287.564 299.944C287.084 299.672 286.548 299.536 285.956 299.536C285.38 299.536 284.852 299.672 284.372 299.944C283.908 300.2 283.524 300.568 283.22 301.048C282.932 301.512 282.756 302.064 282.692 302.704ZM304.912 310.24C303.84 310.24 302.816 310.064 301.84 309.712C300.864 309.36 300.024 308.84 299.32 308.152L300.472 306.064C301.224 306.672 301.96 307.12 302.68 307.408C303.416 307.696 304.12 307.84 304.792 307.84C305.416 307.84 305.912 307.728 306.28 307.504C306.664 307.28 306.856 306.944 306.856 306.496C306.856 306.192 306.752 305.96 306.544 305.8C306.336 305.624 306.032 305.472 305.632 305.344C305.248 305.216 304.776 305.072 304.216 304.912C303.288 304.608 302.512 304.312 301.888 304.024C301.264 303.736 300.792 303.376 300.472 302.944C300.168 302.496 300.016 301.928 300.016 301.24C300.016 300.408 300.224 299.696 300.64 299.104C301.072 298.496 301.664 298.024 302.416 297.688C303.184 297.352 304.08 297.184 305.104 297.184C306 297.184 306.848 297.328 307.648 297.616C308.448 297.888 309.176 298.336 309.832 298.96L308.536 301C307.896 300.504 307.288 300.144 306.712 299.92C306.136 299.68 305.552 299.56 304.96 299.56C304.624 299.56 304.304 299.6 304 299.68C303.712 299.76 303.472 299.896 303.28 300.088C303.104 300.264 303.016 300.52 303.016 300.856C303.016 301.16 303.096 301.4 303.256 301.576C303.432 301.736 303.688 301.88 304.024 302.008C304.376 302.136 304.8 302.28 305.296 302.44C306.304 302.728 307.152 303.024 307.84 303.328C308.544 303.632 309.072 304.008 309.424 304.456C309.776 304.888 309.952 305.488 309.952 306.256C309.952 307.504 309.496 308.48 308.584 309.184C307.672 309.888 306.448 310.24 304.912 310.24ZM317.972 310.24C316.964 310.24 316.052 310.072 315.236 309.736C314.42 309.384 313.724 308.912 313.148 308.32C312.572 307.712 312.124 307.024 311.804 306.256C311.5 305.472 311.348 304.648 311.348 303.784C311.348 302.584 311.612 301.488 312.14 300.496C312.684 299.504 313.452 298.712 314.444 298.12C315.452 297.512 316.636 297.208 317.996 297.208C319.372 297.208 320.548 297.512 321.524 298.12C322.5 298.712 323.244 299.504 323.756 300.496C324.284 301.472 324.548 302.528 324.548 303.664C324.548 303.856 324.54 304.056 324.524 304.264C324.508 304.456 324.492 304.616 324.476 304.744H314.756C314.82 305.384 315.004 305.944 315.308 306.424C315.628 306.904 316.028 307.272 316.508 307.528C317.004 307.768 317.532 307.888 318.092 307.888C318.732 307.888 319.332 307.736 319.892 307.432C320.468 307.112 320.86 306.696 321.068 306.184L323.828 306.952C323.524 307.592 323.084 308.16 322.508 308.656C321.948 309.152 321.284 309.544 320.516 309.832C319.748 310.104 318.9 310.24 317.972 310.24ZM314.684 302.704H321.26C321.196 302.064 321.012 301.512 320.708 301.048C320.42 300.568 320.036 300.2 319.556 299.944C319.076 299.672 318.54 299.536 317.948 299.536C317.372 299.536 316.844 299.672 316.364 299.944C315.9 300.2 315.516 300.568 315.212 301.048C314.924 301.512 314.748 302.064 314.684 302.704ZM339.809 309.352C339.537 309.464 339.209 309.592 338.825 309.736C338.441 309.88 338.025 309.992 337.577 310.072C337.145 310.168 336.705 310.216 336.257 310.216C335.665 310.216 335.121 310.112 334.625 309.904C334.129 309.696 333.729 309.368 333.425 308.92C333.137 308.456 332.993 307.856 332.993 307.12V299.896H331.337V297.424H332.993V293.344H336.209V297.424H338.849V299.896H336.209V306.04C336.225 306.472 336.345 306.784 336.569 306.976C336.793 307.168 337.073 307.264 337.409 307.264C337.745 307.264 338.073 307.208 338.393 307.096C338.713 306.984 338.969 306.888 339.161 306.808L339.809 309.352ZM347.151 310.24C346.127 310.24 345.207 310.072 344.391 309.736C343.575 309.384 342.879 308.904 342.303 308.296C341.743 307.688 341.311 306.992 341.007 306.208C340.703 305.424 340.551 304.6 340.551 303.736C340.551 302.856 340.703 302.024 341.007 301.24C341.311 300.456 341.743 299.76 342.303 299.152C342.879 298.544 343.575 298.072 344.391 297.736C345.207 297.384 346.127 297.208 347.151 297.208C348.175 297.208 349.087 297.384 349.887 297.736C350.703 298.072 351.399 298.544 351.975 299.152C352.551 299.76 352.983 300.456 353.271 301.24C353.575 302.024 353.727 302.856 353.727 303.736C353.727 304.6 353.575 305.424 353.271 306.208C352.983 306.992 352.551 307.688 351.975 308.296C351.415 308.904 350.727 309.384 349.911 309.736C349.095 310.072 348.175 310.24 347.151 310.24ZM343.863 303.736C343.863 304.472 344.007 305.128 344.295 305.704C344.583 306.264 344.975 306.704 345.471 307.024C345.967 307.344 346.527 307.504 347.151 307.504C347.759 307.504 348.311 307.344 348.807 307.024C349.303 306.688 349.695 306.24 349.983 305.68C350.287 305.104 350.439 304.448 350.439 303.712C350.439 302.992 350.287 302.344 349.983 301.768C349.695 301.192 349.303 300.744 348.807 300.424C348.311 300.104 347.759 299.944 347.151 299.944C346.527 299.944 345.967 300.112 345.471 300.448C344.975 300.768 344.583 301.216 344.295 301.792C344.007 302.352 343.863 303 343.863 303.736ZM363.386 300.208C362.41 300.208 361.538 300.4 360.77 300.784C360.002 301.152 359.45 301.688 359.114 302.392V310H355.898V297.424H358.85V300.112C359.298 299.248 359.866 298.568 360.554 298.072C361.242 297.576 361.97 297.304 362.738 297.256C362.914 297.256 363.05 297.256 363.146 297.256C363.242 297.256 363.322 297.264 363.386 297.28V300.208ZM376.867 310H373.651V302.944C373.651 301.936 373.475 301.2 373.123 300.736C372.771 300.272 372.283 300.04 371.659 300.04C371.227 300.04 370.787 300.152 370.339 300.376C369.907 300.6 369.515 300.912 369.163 301.312C368.811 301.696 368.555 302.144 368.395 302.656V310H365.179V297.424H368.083V299.752C368.403 299.208 368.811 298.752 369.307 298.384C369.803 298 370.371 297.712 371.011 297.52C371.667 297.312 372.355 297.208 373.075 297.208C373.859 297.208 374.499 297.352 374.995 297.64C375.507 297.912 375.891 298.288 376.147 298.768C376.419 299.232 376.603 299.76 376.699 300.352C376.811 300.944 376.867 301.544 376.867 302.152V310ZM385.495 310.24C384.487 310.24 383.575 310.072 382.759 309.736C381.943 309.384 381.247 308.912 380.671 308.32C380.095 307.712 379.647 307.024 379.327 306.256C379.023 305.472 378.871 304.648 378.871 303.784C378.871 302.584 379.135 301.488 379.663 300.496C380.207 299.504 380.975 298.712 381.967 298.12C382.975 297.512 384.159 297.208 385.519 297.208C386.895 297.208 388.071 297.512 389.047 298.12C390.023 298.712 390.767 299.504 391.279 300.496C391.807 301.472 392.071 302.528 392.071 303.664C392.071 303.856 392.063 304.056 392.047 304.264C392.031 304.456 392.015 304.616 391.999 304.744H382.279C382.343 305.384 382.527 305.944 382.831 306.424C383.151 306.904 383.551 307.272 384.031 307.528C384.527 307.768 385.055 307.888 385.615 307.888C386.255 307.888 386.855 307.736 387.415 307.432C387.991 307.112 388.383 306.696 388.591 306.184L391.351 306.952C391.047 307.592 390.607 308.16 390.031 308.656C389.471 309.152 388.807 309.544 388.039 309.832C387.271 310.104 386.423 310.24 385.495 310.24ZM382.207 302.704H388.783C388.719 302.064 388.535 301.512 388.231 301.048C387.943 300.568 387.559 300.2 387.079 299.944C386.599 299.672 386.063 299.536 385.471 299.536C384.895 299.536 384.367 299.672 383.887 299.944C383.423 300.2 383.039 300.568 382.735 301.048C382.447 301.512 382.271 302.064 382.207 302.704ZM399.676 305.296V297.424H402.892V304.6C402.892 305.56 403.068 306.288 403.42 306.784C403.772 307.264 404.292 307.504 404.98 307.504C405.396 307.504 405.804 307.424 406.204 307.264C406.62 307.088 406.996 306.832 407.332 306.496C407.684 306.16 407.98 305.736 408.22 305.224V297.424H411.436V306.4C411.436 306.736 411.492 306.976 411.604 307.12C411.732 307.264 411.932 307.352 412.204 307.384V310C411.884 310.048 411.612 310.08 411.388 310.096C411.18 310.128 410.988 310.144 410.812 310.144C410.236 310.144 409.764 310.016 409.396 309.76C409.044 309.488 408.836 309.12 408.772 308.656L408.7 307.648C408.14 308.496 407.42 309.144 406.54 309.592C405.66 310.024 404.692 310.24 403.636 310.24C402.34 310.24 401.356 309.824 400.684 308.992C400.012 308.144 399.676 306.912 399.676 305.296ZM434.168 310H430.952V302.944C430.952 301.952 430.776 301.224 430.424 300.76C430.088 300.28 429.616 300.04 429.008 300.04C428.384 300.04 427.784 300.288 427.208 300.784C426.648 301.264 426.248 301.896 426.008 302.68V310H422.792V302.944C422.792 301.936 422.616 301.2 422.264 300.736C421.928 300.272 421.456 300.04 420.848 300.04C420.224 300.04 419.624 300.28 419.048 300.76C418.488 301.24 418.088 301.872 417.848 302.656V310H414.632V297.424H417.536V299.752C418.016 298.936 418.656 298.312 419.456 297.88C420.256 297.432 421.176 297.208 422.216 297.208C423.256 297.208 424.064 297.464 424.64 297.976C425.232 298.488 425.608 299.12 425.768 299.872C426.28 299.008 426.928 298.352 427.712 297.904C428.512 297.44 429.408 297.208 430.4 297.208C431.184 297.208 431.816 297.352 432.296 297.64C432.792 297.912 433.176 298.288 433.448 298.768C433.72 299.232 433.904 299.76 434 300.352C434.112 300.944 434.168 301.544 434.168 302.152V310Z" fill="#E83752"/>
<defs>
<linearGradient id="paint0_linear_1300_419" x1="457" y1="177" x2="492.736" y2="626.157" gradientUnits="userSpaceOnUse">
<stop stop-color="#FA5770" stop-opacity="0"/>
<stop offset="0.5" stop-color="#F24963"/>
<stop offset="1" stop-color="#E83752" stop-opacity="0"/>
</linearGradient>
<linearGradient id="paint1_linear_1300_419" x1="353" y1="177" x2="388.736" y2="626.157" gradientUnits="userSpaceOnUse">
<stop stop-color="#FA5770" stop-opacity="0"/>
<stop offset="0.5" stop-color="#F24963"/>
<stop offset="1" stop-color="#E83752" stop-opacity="0"/>
</linearGradient>
<linearGradient id="paint2_linear_1300_419" x1="249" y1="177" x2="284.736" y2="626.157" gradientUnits="userSpaceOnUse">
<stop stop-color="#FA5770" stop-opacity="0"/>
<stop offset="0.5" stop-color="#F24963"/>
<stop offset="1" stop-color="#E83752" stop-opacity="0"/>
</linearGradient>
<linearGradient id="paint3_linear_1300_419" x1="145" y1="177" x2="180.736" y2="626.157" gradientUnits="userSpaceOnUse">
<stop stop-color="#FA5770" stop-opacity="0"/>
<stop offset="0.5" stop-color="#F24963"/>
<stop offset="1" stop-color="#E83752" stop-opacity="0"/>
</linearGradient>
<linearGradient id="paint4_linear_1300_419" x1="41" y1="177" x2="76.7364" y2="626.157" gradientUnits="userSpaceOnUse">
<stop stop-color="#FA5770" stop-opacity="0"/>
<stop offset="0.5" stop-color="#F24963"/>
<stop offset="1" stop-color="#E83752" stop-opacity="0"/>
</linearGradient>
<linearGradient id="paint5_linear_1300_419" x1="561" y1="177" x2="596.736" y2="626.157" gradientUnits="userSpaceOnUse">
<stop stop-color="#FA5770" stop-opacity="0"/>
<stop offset="0.5" stop-color="#F24963"/>
<stop offset="1" stop-color="#E83752" stop-opacity="0"/>
</linearGradient>
<linearGradient id="paint6_linear_1300_419" x1="77" y1="404" x2="13.8605" y2="427.653" gradientUnits="userSpaceOnUse">
<stop stop-color="#FA5770"/>
<stop offset="1" stop-color="#E83752"/>
</linearGradient>
<linearGradient id="paint7_linear_1300_419" x1="181" y1="404" x2="117.86" y2="427.653" gradientUnits="userSpaceOnUse">
<stop stop-color="#FA5770"/>
<stop offset="1" stop-color="#E83752"/>
</linearGradient>
<linearGradient id="paint8_linear_1300_419" x1="285" y1="404" x2="221.86" y2="427.653" gradientUnits="userSpaceOnUse">
<stop stop-color="#FA5770"/>
<stop offset="1" stop-color="#E83752"/>
</linearGradient>
<linearGradient id="paint9_linear_1300_419" x1="389" y1="404" x2="325.86" y2="427.653" gradientUnits="userSpaceOnUse">
<stop stop-color="#FA5770"/>
<stop offset="1" stop-color="#E83752"/>
</linearGradient>
<linearGradient id="paint10_linear_1300_419" x1="38.5" y1="253" x2="38.5" y2="318" gradientUnits="userSpaceOnUse">
<stop stop-color="#2C2C2C"/>
<stop offset="1" stop-color="#2C2C2C" stop-opacity="0"/>
</linearGradient>
<linearGradient id="paint11_linear_1300_419" x1="35" y1="483" x2="35" y2="555" gradientUnits="userSpaceOnUse">
<stop stop-color="#2C2C2C"/>
<stop offset="1" stop-color="#2C2C2C" stop-opacity="0"/>
</linearGradient>
<linearGradient id="paint12_linear_1300_419" x1="145" y1="487" x2="145" y2="552" gradientUnits="userSpaceOnUse">
<stop stop-color="#2C2C2C"/>
<stop offset="1" stop-color="#2C2C2C" stop-opacity="0"/>
</linearGradient>
<linearGradient id="paint13_linear_1300_419" x1="256.5" y1="485" x2="256.5" y2="553" gradientUnits="userSpaceOnUse">
<stop stop-color="#2C2C2C"/>
<stop offset="1" stop-color="#2C2C2C" stop-opacity="0"/>
</linearGradient>
<linearGradient id="paint14_linear_1300_419" x1="353.5" y1="484" x2="353.5" y2="555" gradientUnits="userSpaceOnUse">
<stop stop-color="#2C2C2C"/>
<stop offset="1" stop-color="#2C2C2C" stop-opacity="0"/>
</linearGradient>
<linearGradient id="paint15_linear_1300_419" x1="144.25" y1="248" x2="144.25" y2="323" gradientUnits="userSpaceOnUse">
<stop stop-color="#2C2C2C"/>
<stop offset="1" stop-color="#2C2C2C" stop-opacity="0"/>
</linearGradient>
<linearGradient id="paint16_linear_1300_419" x1="256" y1="606" x2="256" y2="684" gradientUnits="userSpaceOnUse">
<stop stop-color="#2C2C2C"/>
<stop offset="1" stop-color="#2C2C2C" stop-opacity="0"/>
</linearGradient>
<linearGradient id="paint17_linear_1300_419" x1="245" y1="250" x2="245" y2="322" gradientUnits="userSpaceOnUse">
<stop stop-color="#2C2C2C"/>
<stop offset="1" stop-color="#2C2C2C" stop-opacity="0"/>
</linearGradient>
<linearGradient id="paint18_linear_1300_419" x1="145" y1="609" x2="145" y2="681" gradientUnits="userSpaceOnUse">
<stop stop-color="#2C2C2C"/>
<stop offset="1" stop-color="#2C2C2C" stop-opacity="0"/>
</linearGradient>
<linearGradient id="paint19_linear_1300_419" x1="34.5" y1="613" x2="34.5" y2="678" gradientUnits="userSpaceOnUse">
<stop stop-color="#2C2C2C"/>
<stop offset="1" stop-color="#2C2C2C" stop-opacity="0"/>
</linearGradient>
<linearGradient id="paint20_linear_1300_419" x1="353.25" y1="608" x2="353.25" y2="683" gradientUnits="userSpaceOnUse">
<stop stop-color="#2C2C2C"/>
<stop offset="1" stop-color="#2C2C2C" stop-opacity="0"/>
</linearGradient>
<linearGradient id="paint21_linear_1300_419" x1="351.5" y1="252" x2="351.5" y2="320" gradientUnits="userSpaceOnUse">
<stop stop-color="#2C2C2C"/>
<stop offset="1" stop-color="#2C2C2C" stop-opacity="0"/>
</linearGradient>
<linearGradient id="paint22_linear_1300_419" x1="38.5" y1="131" x2="38.5" y2="202" gradientUnits="userSpaceOnUse">
<stop stop-color="#2C2C2C"/>
<stop offset="1" stop-color="#2C2C2C" stop-opacity="0"/>
</linearGradient>
<linearGradient id="paint23_linear_1300_419" x1="144" y1="127" x2="144" y2="205" gradientUnits="userSpaceOnUse">
<stop stop-color="#2C2C2C"/>
<stop offset="1" stop-color="#2C2C2C" stop-opacity="0"/>
</linearGradient>
<linearGradient id="paint24_linear_1300_419" x1="245" y1="134" x2="245" y2="199" gradientUnits="userSpaceOnUse">
<stop stop-color="#2C2C2C"/>
<stop offset="1" stop-color="#2C2C2C" stop-opacity="0"/>
</linearGradient>
<linearGradient id="paint25_linear_1300_419" x1="351" y1="130" x2="351" y2="202" gradientUnits="userSpaceOnUse">
<stop stop-color="#2C2C2C"/>
<stop offset="1" stop-color="#2C2C2C" stop-opacity="0"/>
</linearGradient>
<linearGradient id="paint26_linear_1300_419" x1="493" y1="404" x2="429.86" y2="427.653" gradientUnits="userSpaceOnUse">
<stop stop-color="#FA5770"/>
<stop offset="1" stop-color="#E83752"/>
</linearGradient>
<linearGradient id="paint27_linear_1300_419" x1="597" y1="404" x2="533.86" y2="427.653" gradientUnits="userSpaceOnUse">
<stop stop-color="#FA5770"/>
<stop offset="1" stop-color="#E83752"/>
</linearGradient>
<linearGradient id="paint28_linear_1300_419" x1="457.25" y1="482" x2="457.25" y2="557" gradientUnits="userSpaceOnUse">
<stop stop-color="#2C2C2C"/>
<stop offset="1" stop-color="#2C2C2C" stop-opacity="0"/>
</linearGradient>
<linearGradient id="paint29_linear_1300_419" x1="452.5" y1="250" x2="452.5" y2="321" gradientUnits="userSpaceOnUse">
<stop stop-color="#2C2C2C"/>
<stop offset="1" stop-color="#2C2C2C" stop-opacity="0"/>
</linearGradient>
<linearGradient id="paint30_linear_1300_419" x1="561" y1="480" x2="561" y2="558" gradientUnits="userSpaceOnUse">
<stop stop-color="#2C2C2C"/>
<stop offset="1" stop-color="#2C2C2C" stop-opacity="0"/>
</linearGradient>
<linearGradient id="paint31_linear_1300_419" x1="31" y1="8" x2="31" y2="80" gradientUnits="userSpaceOnUse">
<stop stop-color="#2C2C2C"/>
<stop offset="1" stop-color="#2C2C2C" stop-opacity="0"/>
</linearGradient>
<linearGradient id="paint32_linear_1300_419" x1="141" y1="12" x2="141" y2="77" gradientUnits="userSpaceOnUse">
<stop stop-color="#2C2C2C"/>
<stop offset="1" stop-color="#2C2C2C" stop-opacity="0"/>
</linearGradient>
<linearGradient id="paint33_linear_1300_419" x1="252.5" y1="10" x2="252.5" y2="78" gradientUnits="userSpaceOnUse">
<stop stop-color="#2C2C2C"/>
<stop offset="1" stop-color="#2C2C2C" stop-opacity="0"/>
</linearGradient>
<linearGradient id="paint34_linear_1300_419" x1="349.5" y1="9" x2="349.5" y2="80" gradientUnits="userSpaceOnUse">
<stop stop-color="#2C2C2C"/>
<stop offset="1" stop-color="#2C2C2C" stop-opacity="0"/>
</linearGradient>
<linearGradient id="paint35_linear_1300_419" x1="453.25" y1="7" x2="453.25" y2="82" gradientUnits="userSpaceOnUse">
<stop stop-color="#2C2C2C"/>
<stop offset="1" stop-color="#2C2C2C" stop-opacity="0"/>
</linearGradient>
<linearGradient id="paint36_linear_1300_419" x1="557" y1="5" x2="557" y2="83" gradientUnits="userSpaceOnUse">
<stop stop-color="#2C2C2C"/>
<stop offset="1" stop-color="#2C2C2C" stop-opacity="0"/>
</linearGradient>
<linearGradient id="paint37_linear_1300_419" x1="461.5" y1="611" x2="461.5" y2="679" gradientUnits="userSpaceOnUse">
<stop stop-color="#2C2C2C"/>
<stop offset="1" stop-color="#2C2C2C" stop-opacity="0"/>
</linearGradient>
<linearGradient id="paint38_linear_1300_419" x1="564" y1="253" x2="564" y2="318" gradientUnits="userSpaceOnUse">
<stop stop-color="#2C2C2C"/>
<stop offset="1" stop-color="#2C2C2C" stop-opacity="0"/>
</linearGradient>
<linearGradient id="paint39_linear_1300_419" x1="560" y1="609" x2="560" y2="681" gradientUnits="userSpaceOnUse">
<stop stop-color="#2C2C2C"/>
<stop offset="1" stop-color="#2C2C2C" stop-opacity="0"/>
</linearGradient>
<linearGradient id="paint40_linear_1300_419" x1="449" y1="130" x2="449" y2="202" gradientUnits="userSpaceOnUse">
<stop stop-color="#2C2C2C"/>
<stop offset="1" stop-color="#2C2C2C" stop-opacity="0"/>
</linearGradient>
<linearGradient id="paint41_linear_1300_419" x1="559" y1="127" x2="559" y2="205" gradientUnits="userSpaceOnUse">
<stop stop-color="#2C2C2C"/>
<stop offset="1" stop-color="#2C2C2C" stop-opacity="0"/>
</linearGradient>
<linearGradient id="paint42_linear_1300_419" x1="46.5" y1="729" x2="46.5" y2="800" gradientUnits="userSpaceOnUse">
<stop stop-color="#2C2C2C"/>
<stop offset="1" stop-color="#2C2C2C" stop-opacity="0"/>
</linearGradient>
<linearGradient id="paint43_linear_1300_419" x1="152" y1="725" x2="152" y2="803" gradientUnits="userSpaceOnUse">
<stop stop-color="#2C2C2C"/>
<stop offset="1" stop-color="#2C2C2C" stop-opacity="0"/>
</linearGradient>
<linearGradient id="paint44_linear_1300_419" x1="253" y1="732" x2="253" y2="797" gradientUnits="userSpaceOnUse">
<stop stop-color="#2C2C2C"/>
<stop offset="1" stop-color="#2C2C2C" stop-opacity="0"/>
</linearGradient>
<linearGradient id="paint45_linear_1300_419" x1="359" y1="728" x2="359" y2="800" gradientUnits="userSpaceOnUse">
<stop stop-color="#2C2C2C"/>
<stop offset="1" stop-color="#2C2C2C" stop-opacity="0"/>
</linearGradient>
<linearGradient id="paint46_linear_1300_419" x1="457" y1="728" x2="457" y2="800" gradientUnits="userSpaceOnUse">
<stop stop-color="#2C2C2C"/>
<stop offset="1" stop-color="#2C2C2C" stop-opacity="0"/>
</linearGradient>
<linearGradient id="paint47_linear_1300_419" x1="567" y1="725" x2="567" y2="803" gradientUnits="userSpaceOnUse">
<stop stop-color="#2C2C2C"/>
<stop offset="1" stop-color="#2C2C2C" stop-opacity="0"/>
</linearGradient>
</defs>
</svg>
