<svg width="26" height="16" viewBox="0 0 36 26" fill="none" xmlns="http://www.w3.org/2000/svg">
<path fill-rule="evenodd" clip-rule="evenodd" d="M0.808438 21.417C0.198372 18.4538 -0.655721 10.8542 0.808438 4.16086C1.0118 3.01335 2.0896 0.674766 4.77389 0.500462C9.56726 0.122801 21.3938 -0.405923 30.3531 0.500462C31.5587 0.514992 34.1442 1.26742 34.8414 4.16086C35.3789 7.16761 36.1313 14.7847 34.8414 21.1991C34.58 22.2304 33.3163 24.3453 30.3531 24.5545C28.0871 24.9467 19.7989 25.4957 4.77389 24.5545C3.7571 24.4383 1.5405 23.6481 0.808438 21.417ZM23.381 12.5275L14.2735 7.34195V17.7131L23.381 12.5275Z" fill="url(#paint0_linear_15_369)"/>
<defs>
<linearGradient id="paint0_linear_15_369" x1="35.5536" y1="12.5371" x2="11.8763" y2="29.3061" gradientUnits="userSpaceOnUse">
<stop stop-color="#FA5770"/>
<stop offset="1" stop-color="#E83752"/>
</linearGradient>
</defs>
</svg>
